{"glyphs":{"0":{"ha":1981,"x_min":34,"x_max":1893,"o":"m 972 1669 q 1795 1157 1488 1669 q 1893 766 1893 957 l 1893 696 q 1743 230 1893 467 q 960 -196 1430 -196 q 178 236 498 -196 q 34 713 34 477 l 34 760 q 529 1565 34 1244 q 972 1669 751 1669 m 103 743 l 103 731 q 564 -23 103 269 q 960 -127 770 -127 q 1697 288 1394 -127 q 1824 713 1824 507 l 1824 748 q 1375 1491 1824 1203 q 960 1600 1178 1600 q 218 1162 510 1600 q 103 743 103 962 m 966 1537 q 1674 1099 1402 1537 q 1761 748 1761 921 l 1761 713 q 1340 35 1761 313 q 966 -63 1141 -63 q 264 357 540 -63 q 166 731 166 543 l 166 743 q 638 1468 166 1198 q 966 1537 817 1537 m 443 1076 l 443 1059 q 557 1151 468 1059 q 937 1347 714 1288 l 943 1358 q 840 1387 943 1383 q 500 1203 648 1387 q 443 1076 443 1122 m 696 736 q 880 484 696 553 q 955 472 906 472 l 972 472 q 1219 656 1149 472 q 1231 748 1231 704 q 1053 990 1231 918 q 978 1002 1027 1002 l 949 1002 q 719 846 793 1002 q 696 736 696 783 m 995 938 q 1150 823 1086 938 q 1168 743 1168 785 q 1001 535 1168 578 l 937 535 q 765 685 823 535 l 759 743 q 914 938 759 883 l 995 938 m 828 736 q 955 604 854 604 l 972 604 q 1099 743 1078 604 q 989 869 1099 832 l 943 869 q 834 760 834 837 l 828 736 m 966 317 l 966 311 q 1047 288 966 294 q 1340 484 1278 303 l 1340 500 q 1323 512 1340 512 q 966 317 1063 393 z "},"1":{"ha":916,"x_min":34,"x_max":828,"o":"m 281 1669 l 581 1669 q 811 1514 746 1669 q 828 1410 828 1452 l 828 69 q 621 -190 828 -149 q 564 -196 591 -196 l 293 -196 q 57 -58 125 -196 q 34 52 34 11 l 34 1421 q 184 1651 34 1582 q 281 1669 254 1669 m 103 1398 l 103 75 q 310 -127 103 -127 l 546 -127 q 759 86 759 -127 l 759 1393 q 557 1600 759 1600 l 304 1600 q 103 1398 103 1600 m 298 1537 l 564 1537 q 696 1393 696 1537 l 696 86 q 633 -52 696 -20 q 546 -63 578 -63 l 310 -63 q 166 69 166 -63 l 166 1404 q 298 1537 166 1537 m 268 1215 l 268 1207 q 276 1198 269 1198 q 351 1301 339 1196 q 547 1428 363 1383 l 547 1436 q 465 1466 547 1455 l 428 1466 q 268 1215 248 1466 z "},"2":{"ha":2263,"x_min":34,"x_max":2175,"o":"m 281 1669 l 1237 1669 q 2066 1162 1757 1669 q 2169 731 2169 952 l 2169 667 q 2117 518 2149 518 q 2175 340 2175 439 l 2175 69 q 1967 -190 2175 -149 q 1910 -196 1938 -196 l 298 -196 q 34 104 34 -196 l 34 754 q 92 967 34 901 q 34 1174 34 1019 l 34 1370 q 172 1646 34 1588 q 281 1669 240 1669 m 103 1352 l 103 1192 q 195 961 103 1016 q 103 766 103 913 l 103 121 q 184 -92 103 -51 q 316 -127 184 -115 l 1893 -127 q 2106 86 2106 -127 l 2106 322 q 2013 507 2106 460 q 2100 690 2100 577 l 2100 713 q 1576 1531 2100 1246 q 1219 1600 1391 1600 l 304 1600 q 115 1479 157 1600 q 103 1352 103 1394 m 298 1537 l 1219 1537 q 1956 1076 1699 1537 q 2037 713 2037 911 l 2037 685 q 1950 553 2037 581 l 1916 547 l 926 547 q 753 518 753 547 l 753 507 q 811 477 766 477 l 1847 477 q 2025 408 2001 477 q 2043 322 2043 381 l 2043 86 q 1979 -52 2043 -20 q 1893 -63 1925 -63 l 316 -63 q 166 86 166 -63 l 166 736 q 230 915 166 881 q 362 932 294 932 l 1249 932 q 1323 967 1323 932 q 1036 1002 1323 1002 l 304 1002 q 184 1070 212 1002 q 166 1192 166 1105 l 166 1352 q 230 1519 166 1519 q 298 1537 230 1533 m 336 821 q 319 777 319 803 l 319 737 q 374 678 319 684 q 736 733 398 678 q 850 737 788 737 l 954 737 q 1200 723 1158 723 q 1337 782 1337 723 q 1299 821 1331 821 q 571 817 751 817 q 336 821 547 817 m 1053 383 l 1053 362 q 944 308 1041 345 l 944 304 q 1059 287 944 287 l 1773 287 q 1807 300 1803 287 l 1807 320 q 1761 362 1761 356 l 1761 383 q 1669 391 1736 391 l 1151 391 q 1053 383 1099 391 m 268 1215 l 268 1207 q 276 1198 269 1198 q 351 1301 339 1196 q 547 1428 363 1383 l 547 1436 q 465 1466 547 1455 l 428 1466 q 268 1215 248 1466 z "},"3":{"ha":1992,"x_min":34,"x_max":1904,"o":"m 281 1669 l 972 1669 q 1801 1162 1493 1669 q 1904 731 1904 952 q 1485 -40 1904 276 q 943 -196 1251 -196 l 298 -196 q 34 104 34 -196 l 34 299 q 92 512 34 447 q 34 720 34 565 l 34 754 q 92 967 34 901 q 34 1174 34 1019 l 34 1370 q 172 1646 34 1588 q 281 1669 240 1669 m 103 1352 l 103 1192 q 195 961 103 1016 q 103 766 103 913 l 103 736 q 195 507 103 562 q 103 311 103 459 l 103 121 q 184 -92 103 -51 q 316 -127 184 -115 l 926 -127 q 1777 431 1514 -127 q 1835 736 1835 612 q 1381 1496 1835 1194 q 955 1600 1177 1600 l 304 1600 q 115 1479 157 1600 q 103 1352 103 1394 m 298 1537 l 955 1537 q 1663 1128 1402 1537 q 1772 731 1772 939 q 1432 92 1772 363 q 926 -63 1232 -63 l 316 -63 q 166 86 166 -63 l 166 282 q 230 460 166 426 q 362 477 294 477 l 949 477 q 1053 512 1053 484 l 1053 518 q 793 547 1053 547 l 304 547 q 184 616 212 547 q 166 736 166 650 q 230 915 166 881 q 362 932 294 932 l 983 932 q 1059 956 1059 937 l 1059 961 q 770 1002 1059 1002 l 304 1002 q 184 1070 212 1002 q 166 1192 166 1105 l 166 1352 q 230 1519 166 1519 q 298 1537 230 1533 m 368 863 q 351 828 351 848 q 385 793 351 793 q 610 800 574 800 q 1047 777 736 800 l 1081 777 q 1156 828 1156 777 l 1156 831 q 1110 863 1156 863 q 552 859 866 863 q 368 863 458 863 m 368 406 q 351 367 351 389 l 351 333 q 408 282 351 288 q 592 294 473 294 l 650 294 q 989 286 955 286 l 995 286 q 1150 351 1122 286 l 1150 376 q 1110 406 1150 406 q 557 401 906 406 q 368 406 451 406 m 268 1215 l 268 1207 q 276 1198 269 1198 q 351 1301 339 1196 q 547 1428 363 1383 l 547 1436 q 465 1466 547 1455 l 428 1466 q 268 1215 248 1466 z "},"4":{"ha":2257,"x_min":34,"x_max":2169,"o":"m 960 1669 l 1921 1669 q 2146 1525 2079 1669 q 2169 1370 2169 1447 l 2169 1174 q 2054 915 2169 977 q 1916 875 2054 893 l 966 875 l 966 869 l 1893 869 q 2169 570 2169 869 l 2169 368 q 2025 92 2169 156 q 1927 75 1954 75 l 1720 75 q 1634 69 1691 75 q 1576 -109 1634 -29 q 1369 -196 1499 -196 l 1099 -196 q 857 -40 916 -196 q 834 69 842 9 l 765 75 l 275 75 q 45 248 96 83 q 34 334 34 302 l 34 708 q 598 1594 34 1301 q 960 1669 800 1669 m 103 690 l 103 351 q 298 144 103 144 l 730 144 q 903 121 903 144 q 1006 -109 903 -60 q 1116 -127 1076 -127 l 1352 -127 q 1548 -18 1499 -127 q 1576 127 1569 125 l 1582 138 q 1754 144 1697 144 l 1904 144 q 2094 305 2094 160 q 2100 386 2100 341 l 2100 553 q 2048 743 2100 696 q 1853 800 2001 800 l 805 800 l 777 806 q 886 926 806 895 q 1001 944 936 944 l 1887 944 q 2083 1053 2035 944 q 2100 1192 2100 1120 l 2100 1352 q 2013 1577 2100 1528 q 1899 1600 1952 1600 l 978 1600 q 218 1157 506 1600 q 103 690 103 962 m 978 1537 l 1904 1537 q 2037 1381 2037 1537 l 2037 1192 q 1933 1013 2037 1013 q 1887 1007 1927 1007 l 1006 1007 q 724 857 798 1007 q 713 811 721 811 q 817 736 713 736 l 1853 736 q 2031 627 2031 736 q 2037 553 2037 600 l 2037 386 q 1962 218 2037 218 q 1921 207 1962 207 l 1761 207 q 1525 167 1525 207 q 1490 5 1506 167 q 1352 -63 1461 -63 l 1116 -63 q 978 28 978 -63 q 891 201 966 201 q 713 207 785 207 l 293 207 q 166 351 166 207 l 166 690 q 690 1485 166 1244 q 978 1537 839 1537 m 443 1065 l 448 1053 q 627 1208 460 1053 q 926 1341 769 1296 q 1001 1370 1001 1354 q 897 1387 939 1387 l 857 1387 q 465 1139 608 1387 q 443 1065 443 1094 z "},"5":{"ha":2257,"x_min":34,"x_max":2169,"o":"m 281 1669 l 1921 1669 q 2152 1514 2087 1669 q 2169 1410 2169 1452 l 2169 1139 q 2117 967 2169 1039 l 2117 961 q 2169 777 2169 900 l 2169 771 q 1645 -98 2169 195 q 1208 -196 1451 -196 l 298 -196 q 39 12 81 -196 q 34 69 34 41 l 34 340 q 85 507 34 441 l 85 512 q 34 685 34 584 l 34 1410 q 172 1646 34 1577 q 281 1669 240 1669 m 103 1393 l 103 702 q 195 512 103 557 l 195 507 q 103 322 103 459 l 103 86 q 316 -127 103 -127 l 1191 -127 q 2037 414 1763 -127 q 2100 777 2100 602 q 2008 961 2100 914 l 2008 967 q 2100 1157 2100 1013 l 2100 1393 q 1899 1600 2100 1600 l 304 1600 q 103 1393 103 1600 m 298 1537 l 1904 1537 q 2037 1393 2037 1537 l 2037 1157 q 1899 1002 2037 1002 l 926 1002 q 753 972 753 1002 l 753 956 q 811 932 753 939 l 1841 932 q 2025 857 1996 932 q 2037 766 2037 810 q 1605 35 2037 294 q 1191 -63 1436 -63 l 316 -63 q 178 0 210 -63 q 166 86 166 54 l 166 322 q 252 466 166 441 q 362 477 298 477 l 1214 477 q 1317 512 1317 484 l 1317 518 q 1059 547 1317 547 l 304 547 q 166 702 166 547 l 166 1393 q 298 1537 166 1537 m 1006 823 l 1006 803 l 978 779 l 978 777 q 1450 741 1333 764 q 1518 734 1450 734 l 1714 734 q 1754 749 1746 734 l 1754 753 q 1708 803 1754 766 q 1714 819 1714 810 l 1714 823 q 1617 830 1668 830 l 1104 830 q 1006 823 1053 830 m 972 367 l 546 367 q 397 375 403 375 q 351 342 351 372 l 351 296 q 408 255 358 255 q 592 267 473 267 l 914 267 q 1254 259 949 267 l 1260 259 q 1415 319 1385 259 l 1415 342 q 1277 379 1415 379 q 1185 383 1244 383 q 972 367 1005 367 m 268 1215 l 268 1207 q 276 1198 269 1198 q 351 1301 339 1196 q 547 1428 363 1383 l 547 1436 q 465 1466 547 1455 l 428 1466 q 268 1215 248 1466 z "},"6":{"ha":2257,"x_min":34,"x_max":2169,"o":"m 972 1669 l 1921 1669 q 2152 1514 2087 1669 q 2169 1410 2169 1452 l 2169 1139 q 2117 967 2169 1039 l 2117 961 q 2169 777 2169 900 l 2169 771 q 1628 -109 2169 189 q 1208 -196 1430 -196 l 298 -196 q 39 12 81 -196 q 34 69 34 41 l 34 673 q 627 1606 34 1330 q 972 1669 812 1669 m 103 656 l 103 86 q 316 -127 103 -127 l 1191 -127 q 2037 420 1771 -127 q 2100 777 2100 594 q 2008 961 2100 914 l 2008 967 q 2100 1157 2100 1013 l 2100 1393 q 1899 1600 2100 1600 l 989 1600 q 195 1111 472 1600 q 103 656 103 941 m 989 1537 l 1904 1537 q 2037 1393 2037 1537 l 2037 1157 q 1887 1002 2037 1002 q 1691 996 1816 996 l 995 996 q 891 961 891 990 q 1093 932 891 932 l 1841 932 q 2025 857 1996 932 q 2037 766 2037 810 q 1565 12 2037 271 q 1191 -63 1404 -63 l 316 -63 q 178 0 210 -63 q 166 86 166 54 l 166 656 q 425 1312 166 1086 q 989 1537 656 1537 m 448 1076 l 448 1059 l 465 1059 q 863 1318 718 1294 q 1001 1370 1001 1357 q 897 1387 939 1387 l 857 1387 q 460 1128 602 1387 q 448 1076 448 1090 m 1087 790 q 1317 768 1087 777 q 1553 741 1466 741 l 1674 741 q 1761 760 1761 741 l 1761 768 q 1703 836 1731 836 q 1450 843 1636 843 l 1358 843 q 1116 820 1116 843 q 1087 790 1116 811 m 753 518 q 811 477 753 477 l 1214 477 q 1317 512 1317 484 l 1317 530 q 1047 547 1277 547 l 926 547 q 753 518 753 547 m 952 286 q 1278 267 952 273 q 1415 325 1390 267 l 1415 347 q 1293 382 1415 382 q 1211 386 1264 386 q 1049 355 1049 377 q 978 306 1049 326 q 952 286 952 290 z "},"7":{"ha":1929,"x_min":34,"x_max":1841,"o":"m 281 1669 l 1617 1669 q 1824 1542 1763 1669 q 1841 1456 1841 1481 q 1680 1070 1841 1371 q 1093 -86 1127 -44 q 840 -196 1004 -196 l 610 -196 q 379 -63 439 -196 q 368 5 368 -24 l 368 23 q 541 431 368 123 q 759 875 541 441 l 298 875 q 34 1174 34 875 l 34 1370 q 172 1646 34 1588 q 281 1669 240 1669 m 103 1352 l 103 1192 q 184 979 103 1019 q 316 944 184 956 l 857 944 l 868 938 q 443 63 443 83 l 437 12 q 552 -115 437 -90 q 627 -127 578 -127 l 823 -127 q 1064 5 1002 -127 q 1761 1410 1757 1372 q 1772 1456 1761 1421 q 1663 1594 1772 1552 l 1594 1600 l 304 1600 q 115 1479 157 1600 q 103 1352 103 1394 m 298 1537 l 1599 1537 q 1708 1461 1708 1537 q 1398 811 1708 1419 q 983 -6 1006 23 q 823 -63 940 -63 l 627 -63 q 500 5 500 -63 q 638 328 500 70 q 932 938 929 899 l 932 944 q 823 1007 932 1007 l 316 1007 q 166 1157 166 1007 l 166 1352 q 230 1519 166 1519 q 298 1537 230 1533 m 268 1215 l 268 1207 q 276 1198 269 1198 q 351 1301 339 1196 q 547 1428 363 1383 l 547 1436 q 465 1466 547 1455 l 428 1466 q 268 1215 248 1466 z "},"8":{"ha":2252,"x_min":34,"x_max":2163,"o":"m 966 1674 l 1910 1674 q 2146 1525 2081 1674 q 2163 1433 2163 1464 l 2163 731 q 1651 -92 2163 225 q 1208 -190 1436 -190 l 287 -190 q 51 -40 117 -190 q 34 52 34 21 l 34 760 q 454 1519 34 1206 q 966 1674 687 1674 m 103 743 l 103 75 q 212 -109 103 -58 q 304 -121 278 -121 l 1191 -121 q 2002 363 1727 -121 q 2094 748 2094 547 l 2094 1410 q 1985 1594 2094 1543 q 1893 1606 1919 1606 l 983 1606 q 212 1157 498 1606 q 103 743 103 962 m 983 1542 l 1893 1542 q 2031 1416 2031 1542 l 2031 748 q 1582 28 2031 292 q 1191 -58 1419 -58 l 304 -58 q 166 69 166 -58 l 166 743 q 569 1433 166 1162 q 983 1542 758 1542 m 443 1082 l 443 1059 q 575 1168 471 1059 q 863 1324 736 1295 q 995 1375 982 1361 q 880 1393 945 1393 l 851 1393 q 465 1151 613 1393 q 443 1082 443 1112 m 880 967 l 880 961 q 955 938 880 942 l 1386 938 q 1450 979 1450 938 q 1272 1007 1450 1007 l 1168 1007 q 880 967 880 1007 m 1192 814 l 1198 807 q 1162 779 1198 803 l 1442 739 l 1473 739 q 1548 789 1548 753 l 1548 807 q 1417 840 1548 840 q 1352 843 1384 843 q 1198 814 1198 831 l 1192 814 m 747 518 l 747 512 q 805 484 760 484 l 1208 484 q 1317 530 1317 484 q 1053 553 1317 553 l 932 553 q 747 518 747 553 m 1063 364 l 1063 353 q 981 302 1063 328 l 976 295 q 1276 273 976 277 l 1290 273 q 1415 338 1396 273 l 1415 345 q 1338 378 1415 378 q 1217 386 1284 386 q 1063 364 1157 385 z "},"9":{"ha":2252,"x_min":34,"x_max":2163,"o":"m 966 1674 l 1910 1674 q 2146 1525 2081 1674 q 2163 1433 2163 1464 l 2163 736 q 1605 -115 2163 194 q 1208 -190 1401 -190 l 287 -190 q 51 -40 117 -190 q 34 52 34 21 l 34 363 q 85 512 34 455 q 34 667 34 585 l 34 748 q 431 1502 34 1198 q 966 1674 670 1674 m 103 731 l 103 690 q 189 512 103 579 q 103 340 103 465 l 103 75 q 212 -109 103 -58 q 304 -121 278 -121 l 1191 -121 q 1939 259 1662 -121 q 2094 754 2094 475 l 2094 1410 q 1985 1594 2094 1543 q 1893 1606 1919 1606 l 983 1606 q 184 1105 467 1606 q 103 731 103 920 m 983 1542 l 1893 1542 q 2031 1416 2031 1542 l 2031 754 q 1525 0 2031 256 q 1191 -58 1372 -58 l 304 -58 q 166 69 166 -58 l 166 345 q 235 466 166 437 q 356 484 270 484 l 1219 484 q 1317 530 1317 484 q 1053 553 1317 553 l 287 553 q 166 685 176 553 l 166 731 q 644 1473 166 1213 q 983 1542 806 1542 m 443 1065 l 454 1059 q 811 1306 705 1285 q 995 1375 992 1367 q 880 1393 945 1393 l 851 1393 q 454 1128 598 1393 q 443 1065 443 1105 m 880 967 q 955 938 880 938 l 1392 938 q 1450 967 1437 938 l 1450 972 q 1265 1007 1450 1007 l 1168 1007 q 880 967 880 1007 m 1139 789 q 1295 767 1139 780 q 1440 746 1383 746 l 1461 746 q 1553 806 1553 754 l 1553 810 q 1408 846 1553 846 q 1332 850 1374 850 q 1171 821 1171 837 q 1139 789 1171 806 m 972 369 l 541 369 q 385 376 401 376 q 351 350 351 370 l 351 318 q 345 314 351 314 q 402 267 345 279 q 575 279 471 279 l 914 279 q 1254 271 1219 271 l 1265 271 q 1415 340 1415 277 l 1415 343 q 1289 379 1415 379 q 1185 383 1219 383 q 972 369 1005 369 z "}," ":{"ha":555,"x_min":0,"x_max":0,"o":""},"!":{"ha":928,"x_min":34,"x_max":840,"o":"m 298 1681 l 575 1681 q 823 1525 754 1681 q 840 1416 840 1452 l 840 875 q 713 639 840 711 q 615 610 694 627 l 615 604 q 817 466 745 604 q 840 345 840 398 l 840 69 q 684 -178 840 -110 q 575 -196 611 -196 l 298 -196 q 51 -35 116 -196 q 34 92 34 38 l 34 322 q 189 593 34 528 q 258 604 240 604 l 258 610 q 92 696 173 614 q 34 898 34 767 l 34 1393 q 178 1657 34 1591 q 298 1681 245 1681 m 103 1375 l 103 915 q 184 713 103 757 q 304 679 184 689 l 569 679 q 770 892 770 679 l 770 1398 q 557 1611 770 1611 l 316 1611 q 103 1375 103 1611 m 316 1548 l 557 1548 q 707 1398 707 1548 l 707 892 q 575 743 707 743 l 298 743 q 166 903 166 743 l 166 1375 q 212 1525 166 1485 q 316 1548 259 1548 m 103 305 l 103 109 q 316 -127 103 -127 l 557 -127 q 770 86 770 -127 l 770 328 q 557 541 770 541 l 316 541 q 103 305 103 541 m 316 477 l 557 477 q 707 328 707 477 l 707 86 q 557 -63 707 -63 l 316 -63 q 178 23 178 -56 q 166 109 168 23 l 166 305 q 212 454 166 415 q 316 477 259 477 m 261 1206 l 261 1198 q 269 1189 262 1189 q 345 1292 332 1187 q 540 1419 357 1374 l 540 1427 q 458 1456 540 1445 l 421 1456 q 261 1206 241 1456 m 268 143 l 268 135 q 276 126 269 126 q 351 229 339 124 q 547 356 363 311 l 547 364 q 465 393 547 382 l 428 393 q 268 143 248 393 z "},"#":{"ha":2240,"x_min":34,"x_max":2152,"o":"m 753 1674 l 1047 1674 q 1254 1565 1171 1674 q 1467 1674 1329 1674 l 1761 1674 q 1979 1531 1914 1674 q 1990 1461 1990 1491 l 1990 1450 q 2152 1203 2152 1383 l 2152 932 q 2020 696 2152 762 q 2043 576 2043 629 l 2043 305 q 1835 46 2043 87 q 1777 40 1805 40 l 1697 40 q 1645 -75 1687 33 q 1427 -190 1556 -190 l 1133 -190 q 920 -81 1006 -190 q 713 -190 847 -190 l 420 -190 q 258 -138 340 -190 q 184 40 184 -63 l 184 58 q 34 282 34 127 l 34 593 q 161 811 34 726 q 143 909 143 882 l 143 1220 q 316 1450 156 1406 q 397 1461 359 1461 l 465 1461 q 517 1537 503 1461 q 753 1674 605 1674 m 212 1197 l 212 932 q 287 766 212 825 q 103 570 114 766 l 103 305 q 224 115 103 166 q 252 98 252 111 l 252 63 q 443 -121 252 -121 l 690 -121 q 897 17 838 -121 q 955 104 897 92 l 966 104 l 966 63 q 1156 -121 966 -121 l 1404 -121 q 1605 12 1554 -121 q 1680 109 1626 109 l 1761 109 q 1973 322 1973 109 l 1973 558 q 1899 736 1973 674 q 2071 857 2022 736 q 2083 949 2083 923 l 2083 1185 q 1962 1387 2083 1336 l 1927 1398 q 1737 1606 1927 1606 l 1490 1606 q 1277 1456 1326 1606 q 1225 1398 1269 1398 q 1196 1519 1214 1398 q 1024 1606 1141 1606 l 777 1606 q 564 1456 612 1606 q 448 1393 564 1393 q 258 1335 296 1393 q 212 1197 212 1291 m 770 1542 l 1029 1542 q 1150 1404 1150 1542 q 1231 1335 1150 1343 q 1358 1485 1320 1335 q 1485 1542 1400 1542 l 1743 1542 q 1864 1404 1864 1542 q 1985 1301 1864 1350 q 2020 1185 2020 1259 l 2020 949 q 1944 806 2020 838 q 1749 760 1749 794 l 1749 748 q 1864 685 1749 720 q 1910 558 1910 641 l 1910 322 q 1858 190 1910 227 q 1634 167 1822 173 q 1553 46 1553 121 q 1409 -58 1515 -58 l 1150 -58 q 1029 58 1029 -58 l 1029 104 q 960 167 1029 156 l 949 167 q 828 17 855 167 q 696 -58 786 -58 l 437 -58 q 316 58 316 -58 l 316 104 q 201 201 316 154 q 166 299 166 237 l 166 576 q 258 696 175 696 q 425 736 425 715 q 431 760 431 747 q 316 823 429 779 q 275 926 275 861 l 275 1203 q 425 1329 275 1329 q 615 1416 615 1329 q 770 1542 651 1542 m 465 1185 q 517 1139 465 1139 q 724 1215 647 1139 q 863 1352 793 1318 q 874 1364 874 1352 l 874 1375 q 828 1398 874 1390 l 800 1398 q 684 1318 772 1398 q 471 1197 485 1219 l 465 1185 m 1196 1185 q 1289 1157 1196 1164 q 1495 1295 1421 1157 l 1588 1364 l 1588 1375 q 1541 1398 1588 1390 l 1513 1398 q 1404 1329 1490 1398 q 1196 1197 1269 1272 l 1196 1185 m 1000 747 q 1086 689 1024 689 q 1182 766 1182 689 q 1105 814 1157 814 l 1086 814 q 1000 747 1012 814 m 351 538 q 397 498 362 498 l 414 498 q 541 589 541 524 l 541 624 q 517 647 541 633 l 494 647 q 351 549 370 647 l 351 538 m 1178 538 q 1224 498 1190 498 l 1241 498 q 1368 589 1368 524 l 1368 624 q 1345 647 1368 633 l 1322 647 q 1178 549 1197 647 l 1178 538 z "},"$":{"ha":2257,"x_min":34,"x_max":2169,"o":"m 955 1951 l 1231 1951 q 1467 1813 1398 1951 q 1490 1704 1490 1744 l 1490 1681 l 1921 1681 q 2146 1537 2079 1681 q 2169 1381 2169 1459 l 2169 1185 q 2112 972 2169 1042 q 2169 783 2150 972 q 1594 -115 2169 182 q 1490 -161 1490 -143 l 1490 -201 q 1340 -437 1490 -372 q 1249 -454 1279 -454 l 937 -454 q 707 -282 752 -442 q 696 -201 696 -239 l 696 -184 l 298 -184 q 39 23 81 -184 q 34 81 34 53 l 34 351 q 85 518 34 452 l 85 524 q 34 696 34 595 l 34 720 q 235 1318 34 1076 q 500 1554 404 1508 q 690 1646 602 1609 q 747 1864 690 1776 q 955 1951 829 1951 m 103 702 q 195 524 103 573 l 195 518 q 103 334 103 471 l 103 98 q 316 -115 103 -115 l 719 -115 q 765 -196 765 -115 q 880 -374 765 -328 q 960 -386 923 -386 l 1225 -386 q 1421 -173 1421 -386 q 1495 -75 1421 -75 q 2025 408 1858 63 q 2100 783 2100 594 q 2008 972 2100 922 q 2100 1203 2100 1027 l 2100 1364 q 2013 1588 2100 1539 q 1899 1611 1952 1611 l 1507 1611 q 1427 1646 1427 1611 q 1214 1882 1427 1882 l 972 1882 q 777 1767 821 1882 q 742 1588 760 1588 q 414 1398 564 1529 q 103 702 103 1141 m 972 1819 l 1214 1819 q 1358 1674 1358 1819 q 1490 1548 1358 1548 l 1904 1548 q 2037 1393 2037 1548 l 2037 1203 q 1916 1013 2037 1013 l 1168 1013 q 880 972 880 1013 l 880 967 q 955 944 902 944 l 1841 944 q 2008 892 1981 944 q 2037 783 2023 892 q 1617 52 2037 313 q 1398 -52 1430 -30 q 1352 -253 1361 -52 q 1231 -322 1318 -322 l 955 -322 q 828 -173 828 -322 q 696 -52 828 -52 l 316 -52 q 178 12 210 -52 q 166 98 166 66 l 166 334 q 252 477 166 452 q 362 489 298 489 l 1219 489 q 1317 524 1294 489 l 1317 530 q 1053 558 1317 558 l 304 558 q 166 720 166 558 q 650 1479 166 1226 q 823 1617 823 1532 q 880 1796 828 1796 q 972 1819 880 1813 m 443 1070 l 454 1065 l 667 1243 q 943 1428 943 1372 q 955 1468 955 1428 l 949 1496 l 926 1496 q 575 1295 875 1496 q 443 1070 443 1163 m 1156 778 l 1156 774 q 1402 743 1156 755 q 1558 724 1473 724 l 1672 724 q 1761 755 1761 724 l 1761 760 q 1686 846 1752 846 q 1525 850 1587 850 l 1318 850 q 1156 778 1201 850 m 345 314 q 385 267 345 289 q 529 272 480 272 l 1150 272 q 1202 267 1171 272 q 1386 351 1386 267 l 1386 359 q 1346 389 1386 389 l 604 389 q 397 393 525 389 q 345 314 345 393 z "},"%":{"ha":1976,"x_min":34,"x_max":1887,"o":"m 1323 1674 l 1594 1674 q 1801 1548 1740 1674 q 1812 1479 1812 1508 l 1812 1461 q 1651 1151 1812 1356 q 1191 449 1546 983 l 1196 449 q 1501 598 1319 598 q 1835 397 1699 598 q 1887 201 1887 310 q 1640 -155 1887 -28 q 1490 -184 1550 -184 q 1139 46 1280 -184 q 1104 207 1110 130 q 1145 374 1104 278 l 1139 374 q 805 -115 899 -4 q 598 -190 712 -190 l 339 -190 q 126 -52 159 -177 q 115 12 115 -29 q 258 305 115 121 q 1104 1577 972 1398 q 1323 1674 1202 1674 m 431 1669 q 788 1421 660 1669 q 817 1272 817 1332 q 587 921 817 1061 q 425 886 502 892 q 62 1134 194 886 q 34 1283 34 1223 q 235 1617 34 1481 q 431 1669 322 1669 m 184 12 q 275 -109 184 -71 q 362 -121 330 -121 l 581 -121 q 817 17 738 -121 q 1726 1398 1696 1334 q 1743 1473 1743 1431 q 1582 1606 1743 1593 l 1346 1606 q 1093 1438 1185 1606 q 195 75 275 213 q 184 12 184 15 m 103 1278 q 281 996 103 1115 q 425 956 328 968 q 730 1174 608 956 l 747 1278 q 546 1577 747 1454 q 425 1600 448 1600 q 120 1375 230 1600 l 103 1278 m 1340 1542 l 1576 1542 q 1680 1479 1680 1542 l 1680 1461 q 1450 1088 1680 1423 q 713 -18 926 288 q 581 -58 655 -58 l 356 -58 q 247 12 247 -58 q 529 466 247 68 q 1214 1496 1088 1331 q 1340 1542 1270 1542 m 425 1537 q 673 1347 585 1537 l 684 1278 q 529 1047 684 1139 q 425 1019 484 1024 q 195 1174 288 1019 q 166 1278 178 1196 q 368 1531 166 1442 l 425 1537 m 1173 207 q 1392 -98 1173 24 l 1495 -115 q 1795 86 1672 -115 q 1818 207 1818 184 q 1605 507 1818 398 q 1501 530 1572 518 q 1214 351 1331 530 q 1173 207 1186 304 m 1501 466 q 1731 305 1634 466 q 1754 207 1749 269 q 1565 -40 1754 46 l 1495 -52 q 1265 104 1357 -52 q 1237 207 1242 149 q 1381 431 1237 336 q 1501 466 1448 466 m 271 1231 l 271 1223 q 278 1217 272 1217 q 342 1305 332 1215 q 511 1415 353 1376 l 511 1421 q 441 1447 511 1437 l 409 1447 q 271 1231 254 1447 m 1357 148 l 1357 140 q 1364 134 1358 134 q 1428 222 1418 132 q 1597 332 1439 293 l 1597 338 q 1527 363 1597 354 l 1495 363 q 1357 148 1340 363 z "},"&":{"ha":2257,"x_min":34,"x_max":2169,"o":"m 955 1951 l 1225 1951 q 1485 1744 1442 1951 q 1490 1686 1490 1714 l 1490 1681 l 1921 1681 q 2146 1537 2079 1681 q 2169 1381 2169 1459 l 2169 1185 q 2112 972 2169 1042 q 2169 766 2169 924 l 2169 731 q 2112 518 2169 587 q 2169 311 2169 469 l 2169 115 q 1904 -184 2169 -184 l 1490 -184 l 1490 -196 q 1335 -437 1490 -378 q 1249 -454 1288 -454 l 937 -454 q 707 -282 752 -442 q 684 -144 692 -144 q 115 368 302 -1 q 34 760 34 566 l 34 817 q 85 984 34 891 q 34 1134 54 984 l 34 1433 q 184 1663 34 1594 q 281 1681 254 1681 l 696 1681 l 696 1704 q 851 1933 696 1869 q 955 1951 912 1951 m 678 1611 l 304 1611 q 103 1410 103 1611 l 103 1157 q 189 972 103 1043 q 103 794 103 918 l 103 777 q 575 -18 103 268 l 753 -98 l 777 -282 q 960 -386 834 -386 l 1225 -386 q 1404 -282 1358 -386 q 1427 -132 1419 -226 q 1467 -115 1448 -115 l 1887 -115 q 2083 -6 2035 -115 q 2100 132 2100 61 l 2100 294 q 2013 518 2100 470 l 2008 518 q 2100 748 2100 573 q 2013 972 2100 925 l 2008 972 q 2100 1203 2100 1027 l 2100 1364 q 2013 1588 2100 1539 q 1899 1611 1952 1611 l 1495 1611 q 1421 1663 1421 1611 q 1208 1882 1421 1882 l 972 1882 q 770 1727 770 1867 q 730 1617 770 1617 q 678 1611 709 1611 m 972 1819 l 1208 1819 q 1358 1681 1358 1819 q 1485 1548 1358 1548 l 1904 1548 q 2037 1393 2037 1548 l 2037 1203 q 1916 1013 2037 1013 l 304 1013 q 166 1151 166 1013 l 166 1416 q 298 1548 166 1548 l 661 1548 q 823 1634 823 1548 q 903 1807 823 1807 q 972 1819 903 1817 m 610 1375 q 736 1358 653 1364 q 960 1502 960 1378 l 960 1508 l 955 1537 l 932 1537 q 610 1387 883 1537 l 610 1375 m 1841 944 q 2020 875 1995 944 q 2037 748 2037 831 q 1916 558 2037 558 l 1156 558 q 886 541 926 558 l 886 524 q 989 489 886 495 l 1841 489 q 2020 420 1995 489 q 2037 294 2037 377 l 2037 132 q 1933 -46 2037 -46 q 1887 -52 1927 -52 l 1490 -52 q 1369 -109 1389 -52 l 1346 -264 q 1231 -322 1309 -322 l 955 -322 q 834 -224 834 -322 q 770 -29 834 -71 q 264 374 418 94 q 166 777 166 555 l 166 800 q 345 944 166 944 l 1841 944 m 351 819 l 351 762 q 398 713 362 713 q 572 722 517 722 l 631 722 l 922 762 q 1255 766 1145 766 l 1588 766 q 1619 779 1615 766 q 1598 801 1609 781 q 1604 819 1604 809 l 1604 823 q 1514 832 1561 832 l 530 832 q 393 841 399 841 q 351 819 365 841 m 1150 361 l 1150 357 q 1156 354 1150 354 q 1036 302 1156 342 l 1036 295 q 1150 283 1086 283 l 1720 283 q 1754 295 1750 283 l 1754 313 q 1708 351 1708 345 q 1714 366 1714 357 l 1714 369 q 1617 376 1668 376 l 1294 376 q 1150 361 1150 376 z "},"'":{"ha":945,"x_min":34,"x_max":857,"o":"m 356 1963 l 529 1963 q 823 1836 758 1963 q 857 1692 857 1771 l 857 1134 q 713 892 857 966 q 604 869 645 869 l 287 869 q 57 1013 131 869 q 34 1122 34 1081 l 34 1709 q 241 1957 34 1900 q 356 1963 319 1963 m 103 1686 l 103 1145 q 224 949 103 998 q 310 938 278 938 l 581 938 q 777 1065 732 938 q 788 1151 788 1119 l 788 1674 q 673 1876 788 1823 q 511 1893 593 1893 l 374 1893 q 115 1773 149 1893 q 103 1686 103 1718 m 511 1830 q 707 1773 672 1830 q 724 1674 724 1718 l 724 1151 q 587 1002 724 1002 l 304 1002 q 166 1139 166 1002 l 166 1692 q 339 1830 166 1830 l 511 1830 m 268 1490 l 268 1482 q 276 1473 269 1473 q 351 1576 339 1471 q 547 1703 363 1658 l 547 1711 q 465 1740 547 1729 l 428 1740 q 268 1490 248 1740 z "},"(":{"ha":1348,"x_min":34,"x_max":1260,"o":"m 960 1847 l 1013 1847 q 1249 1669 1183 1847 q 1260 1560 1260 1600 l 1260 1318 q 1099 1042 1260 1111 q 886 967 886 1014 q 863 898 873 967 l 863 386 q 1041 241 863 241 q 1208 144 1166 212 q 1260 -46 1260 79 l 1260 -305 q 1196 -500 1260 -414 q 983 -581 1115 -581 q 212 -178 526 -581 q 34 414 34 58 l 34 857 q 615 1778 34 1481 q 960 1847 817 1847 m 103 840 l 103 431 q 638 -437 103 -171 q 983 -512 823 -512 q 1191 -288 1191 -512 l 1191 -63 q 1070 161 1191 118 q 811 288 839 181 q 793 368 793 326 l 793 903 q 966 1093 793 1056 q 1191 1335 1191 1093 l 1191 1542 q 989 1778 1191 1778 l 978 1778 q 195 1289 495 1778 q 103 840 103 1093 m 978 1715 l 1006 1715 q 1127 1542 1127 1715 l 1127 1335 q 1081 1185 1127 1225 q 886 1139 1034 1159 q 730 898 730 1063 l 730 386 q 955 115 730 155 q 1127 -40 1127 115 l 1127 -288 q 978 -449 1127 -449 q 293 -58 574 -449 q 166 431 166 136 l 166 840 q 391 1450 166 1221 q 978 1715 647 1715 m 402 1180 l 402 1139 q 414 1128 404 1128 l 420 1128 q 564 1295 444 1145 q 857 1473 703 1419 q 891 1542 883 1502 q 846 1588 883 1588 l 828 1588 q 460 1347 625 1588 q 402 1180 402 1251 z "},")":{"ha":1348,"x_min":34,"x_max":1260,"o":"m 281 1847 l 333 1847 q 1133 1375 803 1847 q 1260 834 1260 1149 l 1260 420 q 736 -477 1260 -182 q 293 -581 531 -581 q 57 -432 126 -581 q 34 -322 34 -363 l 34 -23 q 178 218 34 145 q 351 253 235 241 q 431 397 431 286 l 431 880 q 241 1030 431 1030 q 34 1295 34 1079 l 34 1583 q 224 1842 38 1787 l 281 1847 m 103 1565 l 103 1312 q 184 1128 103 1182 q 379 1082 184 1109 q 500 898 500 1022 l 500 380 q 345 178 500 219 q 103 -40 103 178 l 103 -299 q 218 -495 103 -452 q 310 -512 279 -512 q 1064 -81 755 -512 q 1191 437 1191 133 l 1191 817 q 868 1565 1191 1312 q 316 1778 632 1778 l 304 1778 q 115 1657 165 1778 q 103 1565 103 1592 m 298 1715 l 316 1715 q 1041 1260 762 1715 q 1127 817 1127 1082 l 1127 437 q 598 -391 1127 -156 q 304 -449 450 -449 q 166 -305 166 -449 l 166 -40 q 339 115 166 115 q 500 195 410 115 q 564 391 564 265 l 564 880 q 391 1145 564 1078 q 189 1215 189 1164 q 166 1312 172 1215 l 166 1565 q 298 1715 166 1715 m 333 -23 q 397 -98 345 -98 q 627 0 522 -81 q 719 178 719 94 q 701 201 710 201 l 690 201 q 517 109 676 201 q 333 -23 333 34 z "},",":{"ha":928,"x_min":34,"x_max":840,"o":"m 298 610 l 575 610 q 823 449 758 610 q 840 322 840 376 l 840 -178 q 696 -444 840 -374 q 477 -466 615 -466 l 397 -466 q 85 -368 133 -466 q 34 -201 34 -302 l 34 345 q 189 593 34 524 q 298 610 262 610 m 103 328 l 103 -184 q 218 -380 103 -336 q 414 -397 282 -397 l 460 -397 q 713 -345 675 -397 q 770 -161 770 -294 l 770 305 q 557 541 770 541 l 316 541 q 103 328 103 541 m 316 477 l 557 477 q 696 391 696 470 q 707 305 707 391 l 707 -161 q 650 -317 707 -282 q 460 -334 587 -334 l 414 -334 q 201 -294 201 -334 q 166 -184 166 -267 l 166 328 q 316 477 166 477 m 268 143 l 268 135 q 276 126 269 126 q 351 229 339 124 q 547 356 363 311 l 547 364 q 465 393 547 382 l 428 393 q 268 143 248 393 z "},"-":{"ha":1486,"x_min":34,"x_max":1398,"o":"m 293 886 l 1127 886 q 1386 696 1332 882 q 1398 558 1398 623 l 1398 386 q 1237 81 1398 132 q 1145 63 1175 63 l 287 63 q 51 224 121 63 q 34 328 34 286 l 34 627 q 184 863 34 794 q 293 886 252 886 m 103 604 l 103 345 q 224 144 103 194 q 310 132 278 132 l 1122 132 q 1305 236 1257 132 q 1329 403 1329 289 l 1329 541 q 1249 783 1329 731 q 1110 817 1194 817 l 316 817 q 103 604 103 817 m 310 754 l 1110 754 q 1265 587 1265 754 l 1265 403 q 1202 213 1265 231 q 1127 195 1174 195 l 304 195 q 166 345 166 195 l 166 610 q 310 754 166 754 m 333 610 q 402 535 349 535 q 541 547 476 547 l 966 547 q 1006 587 1006 547 q 960 621 1002 621 l 610 621 q 368 639 463 621 q 333 610 345 639 z "},".":{"ha":928,"x_min":34,"x_max":840,"o":"m 298 610 l 575 610 q 817 460 751 610 q 840 248 840 391 l 840 167 q 742 -144 840 -96 q 575 -196 676 -196 l 298 -196 q 57 -58 126 -196 q 34 52 34 11 l 34 363 q 212 598 34 542 q 298 610 267 610 m 103 340 l 103 75 q 316 -127 103 -127 l 557 -127 q 753 -12 710 -127 q 770 184 770 53 l 770 230 q 719 477 770 477 q 557 541 677 541 l 316 541 q 103 340 103 541 m 316 477 l 557 477 q 696 397 677 477 q 707 230 707 341 l 707 184 q 667 -29 707 -29 q 557 -63 641 -63 l 316 -63 q 166 69 166 -63 l 166 345 q 316 477 166 477 m 268 143 l 268 135 q 276 126 269 126 q 351 229 339 124 q 547 356 363 311 l 547 364 q 465 393 547 382 l 428 393 q 268 143 248 393 z "},"?":{"ha":2268,"x_min":34,"x_max":2180,"o":"m 298 1681 l 1214 1681 q 2083 1151 1785 1681 q 2180 690 2180 950 q 2031 443 2180 509 q 1893 420 1966 420 l 1490 420 q 1501 345 1501 394 l 1501 69 q 1346 -178 1501 -110 q 1237 -196 1273 -196 l 960 -196 q 713 -35 778 -196 q 696 92 696 38 l 696 322 q 707 420 696 374 l 321 420 q 34 708 34 420 l 34 777 q 85 967 34 901 l 85 972 q 34 1162 34 1038 l 34 1393 q 178 1657 34 1591 q 298 1681 245 1681 m 103 1375 l 103 1180 q 189 967 103 1031 q 103 760 103 916 l 103 725 q 189 518 103 568 q 339 489 247 489 l 817 489 q 765 305 765 429 l 765 109 q 978 -127 765 -127 l 1219 -127 q 1432 86 1432 -127 l 1432 328 q 1381 489 1432 431 l 1876 489 q 2112 702 2112 489 q 1634 1514 2112 1226 q 1196 1611 1442 1611 l 316 1611 q 103 1375 103 1611 m 316 1548 l 1196 1548 q 1985 1042 1738 1548 q 2048 702 2048 876 q 1967 564 2048 585 q 1876 553 1943 553 l 339 553 q 189 598 229 553 q 166 725 166 651 l 166 760 q 321 944 166 944 l 1202 944 q 1300 956 1254 944 l 1300 967 q 1208 996 1300 991 l 356 996 q 178 1088 178 1006 q 166 1180 166 1113 l 166 1375 q 212 1525 166 1485 q 316 1548 259 1548 m 995 840 l 604 840 q 397 844 525 840 q 345 787 351 844 q 385 758 345 766 q 569 762 446 758 q 1225 750 1033 758 q 1386 803 1386 757 l 1386 807 q 1196 852 1386 852 q 995 840 1050 840 m 989 489 l 1219 489 q 1369 328 1369 489 l 1369 86 q 1219 -63 1369 -63 l 978 -63 q 840 23 840 -56 q 828 109 829 23 l 828 305 q 926 484 828 463 q 989 489 965 489 m 1071 366 q 1042 406 1071 395 l 996 406 q 956 309 956 406 q 1008 239 956 239 q 1071 354 1071 239 l 1071 366 m 268 1215 l 268 1207 q 276 1198 269 1198 q 351 1301 339 1196 q 547 1428 363 1383 l 547 1436 q 465 1466 547 1455 l 428 1466 q 268 1215 248 1466 z "},"A":{"ha":2257,"x_min":34,"x_max":2169,"o":"m 966 1669 l 1927 1669 q 2157 1496 2113 1656 q 2169 1428 2169 1456 l 2169 46 q 1997 -184 2159 -135 q 1910 -196 1942 -196 l 1634 -196 q 1392 -46 1459 -196 q 1375 63 1375 27 l 1375 69 l 834 69 l 834 63 q 690 -173 826 -115 q 581 -196 622 -196 l 287 -196 q 51 -40 110 -189 q 34 86 34 32 l 34 662 q 569 1577 34 1299 q 966 1669 755 1669 m 103 644 l 103 104 q 184 -98 103 -49 q 310 -127 242 -127 l 557 -127 q 730 -52 679 -127 q 770 127 751 -52 q 805 138 789 138 l 1404 138 q 1444 69 1444 138 q 1651 -127 1444 -127 l 1893 -127 q 2100 69 2100 -127 l 2100 1404 q 1990 1588 2100 1537 q 1904 1600 1936 1600 l 983 1600 q 184 1093 467 1600 q 103 644 103 911 m 983 1537 l 1910 1537 q 2037 1410 2037 1537 l 2037 52 q 1893 -63 2037 -63 l 1651 -63 q 1513 17 1535 -63 q 1432 195 1513 195 q 1409 201 1432 201 l 800 201 q 701 63 701 201 q 564 -63 701 -63 l 304 -63 q 178 17 178 -53 q 166 104 168 17 l 166 644 q 379 1266 166 1050 q 983 1537 626 1537 m 420 1024 q 425 1007 425 1013 l 437 1007 q 770 1272 666 1255 q 1335 1347 864 1347 l 1749 1347 q 1761 1358 1761 1347 l 1761 1381 l 1731 1387 l 1260 1387 q 874 1404 1090 1387 q 431 1088 571 1404 q 420 1024 420 1047 m 719 811 l 719 806 q 823 736 719 736 l 1386 736 q 1501 800 1474 736 q 1507 875 1501 804 q 1381 1007 1507 1007 l 1029 1007 q 724 846 785 1007 l 719 811 m 1018 944 l 1386 944 q 1444 886 1444 944 l 1444 857 q 1398 800 1444 800 l 811 800 l 782 806 q 909 932 782 881 q 1018 944 955 944 m 978 875 l 978 869 l 1375 869 l 1375 875 l 978 875 m 1193 581 l 1093 581 q 969 565 1038 581 l 969 555 q 1059 545 1019 545 q 1437 535 1258 545 q 1651 654 1615 535 l 1651 690 q 1636 705 1651 696 l 1626 705 q 1397 610 1554 705 q 1193 581 1325 581 z "},"B":{"ha":2263,"x_min":34,"x_max":2175,"o":"m 379 1940 l 483 1940 q 788 1830 731 1940 q 828 1686 806 1830 l 828 1669 l 1214 1669 q 2094 1116 1799 1669 q 2175 725 2175 919 q 1835 17 2175 330 q 1501 -161 1638 -130 q 1070 -201 1372 -201 l 379 -201 q 115 -138 168 -201 q 34 46 34 -66 l 34 1692 q 195 1922 34 1858 q 379 1940 265 1940 m 103 1669 l 103 69 q 201 -109 103 -66 q 397 -132 248 -132 l 1053 -132 q 1697 12 1539 -132 q 1979 288 1807 68 q 2106 731 2106 522 q 1663 1485 2106 1192 q 1196 1600 1470 1600 l 817 1600 q 759 1669 759 1600 q 517 1870 759 1870 l 397 1870 q 155 1819 198 1870 q 103 1669 103 1763 m 397 1807 l 465 1807 q 684 1738 676 1807 l 707 1588 q 846 1537 732 1537 l 1196 1537 q 1973 1047 1731 1537 q 2043 731 2043 895 q 1605 23 2043 303 q 1093 -69 1438 -69 l 397 -69 q 184 -18 206 -69 q 166 63 166 27 l 166 1674 q 304 1801 166 1801 q 397 1807 304 1807 m 863 1370 l 863 1358 q 966 1347 920 1347 l 1162 1347 q 1225 1364 1225 1347 q 1081 1387 1174 1387 l 1018 1387 q 863 1370 934 1387 m 696 869 l 696 616 q 782 472 696 472 q 817 466 782 466 l 1214 466 q 1495 639 1420 466 q 1507 731 1507 704 l 1507 743 q 1323 990 1507 922 q 1104 1007 1270 1007 l 880 1007 q 707 938 707 1007 q 696 869 697 938 m 1110 944 q 1398 875 1354 944 q 1444 760 1444 800 l 1444 725 q 1317 547 1444 600 q 1225 530 1280 530 l 811 530 q 759 581 759 530 l 759 886 q 828 944 759 944 l 1110 944 m 828 875 l 828 598 l 1208 598 q 1363 685 1335 598 q 1375 731 1375 706 l 1375 743 q 1231 869 1375 854 q 1087 875 1183 875 l 828 875 m 857 299 l 857 288 q 1237 271 923 271 l 1289 271 q 1628 466 1527 271 q 1640 512 1640 487 l 1640 518 q 1622 535 1640 526 q 1300 374 1613 535 q 903 311 1181 311 q 857 299 903 303 m 268 1463 l 268 1455 q 276 1447 269 1447 q 351 1550 339 1444 q 547 1676 363 1632 l 547 1685 q 465 1714 547 1703 l 428 1714 q 268 1463 248 1714 z "},"C":{"ha":1992,"x_min":34,"x_max":1904,"o":"m 960 1669 l 1657 1669 q 1887 1514 1822 1669 q 1904 1387 1904 1441 l 1904 1157 q 1777 903 1904 971 q 1651 875 1695 875 l 1047 875 q 846 794 869 875 q 834 743 834 757 l 834 731 q 978 604 834 618 q 1110 598 1018 598 l 1657 598 q 1887 443 1822 598 q 1904 317 1904 370 l 1904 86 q 1777 -167 1904 -100 q 1651 -196 1695 -196 l 989 -196 q 97 391 391 -196 q 34 743 34 591 q 460 1519 34 1201 q 960 1669 697 1669 m 103 736 q 500 17 103 311 q 1006 -127 707 -127 l 1628 -127 q 1818 -23 1770 -127 q 1835 104 1835 46 l 1835 299 q 1720 518 1835 479 q 1634 530 1666 530 l 1093 530 q 823 593 852 530 q 765 713 765 654 l 765 760 q 834 898 765 822 q 1029 944 893 944 l 1628 944 q 1818 1047 1770 944 q 1835 1174 1835 1116 l 1835 1370 q 1720 1588 1835 1550 q 1634 1600 1666 1600 l 978 1600 q 189 1111 479 1600 q 103 736 103 903 m 978 1537 l 1640 1537 q 1766 1450 1746 1537 q 1772 1370 1772 1401 l 1772 1174 q 1720 1024 1772 1057 q 1634 1007 1668 1007 l 1029 1007 q 742 886 810 1007 q 701 743 701 816 l 701 731 q 897 477 701 547 q 1093 466 981 466 l 1640 466 q 1766 380 1746 466 q 1772 299 1772 331 l 1772 104 q 1720 -46 1772 -13 q 1634 -63 1668 -63 l 1006 -63 q 235 420 485 -63 q 166 736 166 589 q 598 1444 166 1170 q 978 1537 779 1537 m 420 1030 l 420 1019 q 431 1007 421 1007 q 564 1145 441 1007 q 1191 1347 779 1347 l 1467 1347 l 1495 1352 l 1495 1370 q 1461 1387 1490 1387 l 1242 1387 q 868 1404 1099 1387 q 431 1099 581 1404 q 420 1030 420 1059 m 1018 299 l 1018 288 q 1139 276 1090 276 l 1467 276 l 1495 282 l 1495 299 q 1461 317 1490 317 l 1179 317 q 1018 299 1077 317 z "},"D":{"ha":2268,"x_min":34,"x_max":2180,"o":"m 1726 1940 l 1847 1940 q 2123 1847 2067 1940 q 2180 1606 2180 1792 l 2180 132 q 2089 -144 2180 -88 q 1847 -201 2033 -201 l 1139 -201 q 506 -69 671 -201 q 230 173 407 -31 q 34 736 34 426 q 385 1461 34 1148 q 638 1611 524 1563 q 995 1669 827 1669 l 1381 1669 l 1381 1686 q 1548 1922 1392 1874 q 1726 1940 1602 1940 m 1392 1600 l 1013 1600 q 195 1111 467 1600 q 103 736 103 913 q 281 218 103 467 q 661 -69 497 -20 q 1156 -132 794 -132 l 1830 -132 q 2077 -58 2030 -132 q 2112 150 2112 2 l 2112 1588 q 2037 1836 2112 1788 q 1830 1870 1978 1870 l 1743 1870 q 1507 1819 1541 1870 q 1444 1617 1444 1764 q 1392 1600 1422 1600 m 1743 1807 l 1830 1807 q 2025 1750 2025 1807 q 2048 1588 2045 1750 l 2048 150 q 1990 -46 2048 -46 q 1830 -69 1990 -66 l 1156 -69 q 604 28 739 -69 q 207 500 306 197 q 166 736 178 571 q 500 1375 166 1107 q 1013 1537 703 1537 l 1363 1537 q 1513 1640 1513 1537 q 1571 1790 1513 1764 q 1743 1807 1617 1807 m 1179 1387 q 886 1404 1037 1393 q 431 1093 576 1404 q 420 1019 420 1042 q 431 1007 421 1007 l 437 1007 q 696 1237 620 1203 q 1093 1341 888 1341 l 1254 1341 q 1415 1335 1328 1341 q 1657 1468 1603 1335 q 1726 1588 1657 1569 q 1784 1634 1758 1588 q 1720 1674 1784 1667 l 1691 1674 q 1645 1565 1659 1674 l 1340 1416 q 1179 1387 1258 1387 m 701 736 q 926 472 701 524 q 1006 466 962 466 l 1392 466 q 1513 587 1513 466 l 1513 869 q 1409 1002 1513 1002 q 1329 1007 1392 1007 l 1099 1007 q 770 921 830 1007 q 701 736 701 841 m 1099 944 l 1346 944 q 1444 915 1444 944 q 1450 886 1450 905 l 1450 587 q 1404 530 1450 530 l 1001 530 q 788 633 847 530 q 765 731 765 690 l 765 743 q 937 938 765 894 q 1099 944 1025 944 m 834 736 q 1018 598 834 598 l 1381 598 l 1381 875 l 1116 875 q 863 811 863 875 q 834 736 846 811 m 1103 294 q 1449 264 1103 271 q 1638 338 1579 264 q 1663 406 1663 375 q 1634 435 1656 435 q 1395 333 1586 435 q 1137 303 1312 303 q 1103 294 1137 297 z "},"E":{"ha":1992,"x_min":34,"x_max":1904,"o":"m 960 1669 l 1657 1669 q 1887 1508 1822 1669 q 1904 1324 1904 1438 l 1904 1220 q 1795 915 1904 972 q 1651 875 1795 897 l 1622 875 q 1634 731 1634 784 q 1622 598 1634 688 l 1657 598 q 1887 437 1822 598 q 1904 253 1904 367 l 1904 150 q 1795 -155 1904 -98 q 1651 -196 1795 -174 l 989 -196 q 120 345 415 -196 q 34 736 34 535 q 575 1588 34 1275 q 960 1669 787 1669 m 103 731 q 581 -35 103 264 q 1006 -127 772 -127 l 1628 -127 q 1835 109 1835 -127 l 1835 236 q 1789 472 1835 427 q 1518 535 1747 535 l 1507 535 q 1565 736 1565 591 q 1507 938 1565 884 l 1518 944 l 1628 944 q 1835 1180 1835 944 l 1835 1306 q 1784 1548 1835 1505 q 1634 1600 1727 1600 l 978 1600 q 207 1139 492 1600 q 103 731 103 945 m 978 1537 l 1640 1537 q 1766 1398 1766 1537 q 1772 1306 1772 1398 l 1772 1237 q 1726 1036 1772 1036 q 1640 1007 1726 1017 q 1225 996 1312 996 l 978 996 q 886 961 903 996 l 886 956 q 960 932 886 937 l 1323 932 q 1485 869 1447 932 q 1501 736 1501 793 q 1369 547 1501 547 q 1289 541 1352 541 l 943 541 q 886 518 886 534 l 886 512 q 1013 477 886 482 l 1254 477 q 1731 437 1731 477 q 1772 259 1772 413 l 1772 167 q 1703 -52 1772 -43 q 1634 -63 1663 -63 l 1006 -63 q 224 443 470 -63 q 166 743 166 594 q 604 1450 166 1171 q 978 1537 788 1537 m 420 1047 l 420 1019 q 431 1007 421 1007 q 604 1174 441 1007 q 1070 1341 823 1341 q 1340 1347 1178 1347 l 1478 1347 q 1495 1364 1487 1347 l 1495 1370 q 1461 1387 1490 1387 l 1242 1387 q 868 1404 1099 1387 q 448 1139 605 1404 q 420 1047 420 1074 m 1095 772 l 1095 767 q 1167 757 1134 757 l 1249 757 q 1291 772 1287 757 l 1291 808 q 1249 854 1291 854 l 1203 854 q 1121 793 1154 854 q 1095 772 1106 793 m 1044 285 q 1187 258 1044 258 l 1392 258 q 1476 272 1476 258 l 1476 276 q 1341 325 1470 283 q 1248 387 1286 387 l 1202 387 q 1127 334 1156 387 q 1044 285 1050 300 z "},"F":{"ha":1981,"x_min":34,"x_max":1893,"o":"m 1104 1940 l 1640 1940 q 1876 1784 1817 1932 q 1893 1657 1893 1712 l 1893 1428 q 1754 1168 1893 1230 q 1657 1145 1680 1145 q 1375 1139 1443 1139 l 1375 1134 q 1617 972 1561 1134 q 1634 806 1634 901 l 1634 679 q 1541 403 1634 458 q 1300 345 1487 345 l 834 345 l 834 150 q 770 -115 834 -62 q 587 -196 699 -196 l 275 -196 q 45 -23 95 -186 q 34 63 34 31 l 34 961 q 581 1853 34 1559 q 1104 1940 757 1940 m 103 944 l 103 81 q 298 -127 103 -127 l 564 -127 q 742 -29 699 -127 q 765 167 765 18 l 765 380 q 800 414 765 414 l 1283 414 q 1530 489 1483 414 q 1565 696 1565 549 l 1565 789 q 1490 1036 1565 989 q 1283 1070 1431 1070 l 793 1070 q 782 1088 782 1070 q 983 1208 835 1208 l 1289 1208 q 1743 1243 1743 1208 q 1824 1444 1824 1290 l 1824 1640 q 1743 1842 1824 1793 q 1617 1870 1685 1870 l 1122 1870 q 471 1697 648 1870 q 103 944 103 1436 m 1122 1807 l 1622 1807 q 1749 1727 1749 1796 q 1761 1640 1761 1727 l 1761 1444 q 1703 1289 1761 1322 q 1657 1278 1686 1289 q 1289 1272 1418 1272 l 1001 1272 q 719 1082 762 1272 l 719 1070 q 800 1007 719 1017 l 1283 1007 q 1478 949 1478 1007 q 1501 789 1499 949 l 1501 696 q 1444 500 1501 500 q 1283 477 1444 480 l 811 477 q 701 368 701 477 l 701 167 q 650 -46 701 -24 q 569 -63 606 -63 l 281 -63 q 166 81 166 -63 l 166 944 q 713 1761 166 1529 q 1122 1807 838 1807 m 420 1295 l 420 1283 q 431 1272 421 1272 q 581 1428 442 1272 q 1099 1611 824 1611 q 1461 1617 1298 1617 l 1485 1623 l 1485 1640 q 1450 1657 1478 1657 l 1398 1657 q 863 1669 1277 1657 q 431 1364 582 1669 q 420 1295 420 1324 m 857 840 l 857 829 q 960 817 914 817 l 1208 817 q 1225 840 1217 817 q 1173 857 1203 857 l 1001 857 q 857 840 937 857 z "},"G":{"ha":2257,"x_min":34,"x_max":2169,"o":"m 960 1669 l 1921 1669 q 2152 1514 2087 1669 q 2169 1387 2169 1441 l 2169 1157 q 2117 967 2169 1034 l 2117 961 q 2169 771 2169 896 l 2169 86 q 2043 -167 2169 -100 q 1916 -196 1961 -196 l 989 -196 q 97 391 390 -196 q 34 743 34 584 q 534 1565 34 1250 q 960 1669 749 1669 m 103 736 q 500 17 103 309 q 1006 -127 705 -127 l 1893 -127 q 2083 -23 2035 -127 q 2100 104 2100 46 l 2100 754 q 2013 961 2100 911 l 2008 961 l 2008 967 q 2100 1162 2100 1012 l 2100 1370 q 1985 1588 2100 1550 q 1899 1600 1931 1600 l 978 1600 q 212 1151 501 1600 q 103 736 103 947 m 978 1537 l 1904 1537 q 2031 1450 2010 1537 q 2037 1370 2037 1401 l 2037 1174 q 1899 1002 2037 1002 q 1812 996 1883 996 l 1294 996 q 926 1002 1165 996 q 742 892 843 1002 q 701 748 701 816 l 701 720 q 903 477 701 544 l 1386 477 q 1450 507 1450 486 l 1450 512 q 1392 541 1437 541 l 1179 541 q 989 593 1023 541 q 966 696 966 644 l 966 777 q 1127 932 966 932 l 1858 932 q 2025 857 1992 932 q 2037 754 2037 800 l 2037 104 q 1985 -46 2037 -13 q 1899 -63 1933 -63 l 1006 -63 q 235 420 484 -63 q 166 736 166 584 q 598 1444 166 1173 q 978 1537 777 1537 m 420 1047 l 420 1019 q 431 1007 421 1007 q 581 1162 440 1007 q 1076 1341 816 1341 q 1340 1347 1179 1347 l 1731 1347 l 1761 1352 l 1761 1370 q 1726 1387 1754 1387 l 1242 1387 q 868 1404 1099 1387 q 425 1088 574 1404 l 420 1047 m 955 938 l 960 938 q 903 777 903 888 l 903 696 q 955 541 903 593 l 926 541 q 770 685 821 541 q 765 725 765 692 l 765 766 q 955 938 804 938 m 1131 802 q 1189 734 1131 734 l 1303 734 q 1643 693 1417 734 l 1758 693 q 1787 716 1766 693 l 1787 739 q 1718 825 1779 825 q 1655 829 1697 829 l 1413 829 q 1177 833 1327 829 q 1131 802 1138 822 m 1043 349 q 1049 322 1043 347 q 928 250 1049 293 l 928 246 q 1221 223 928 223 l 1365 223 q 1555 313 1555 223 l 1555 345 q 1532 363 1555 352 l 1055 363 q 1043 349 1043 363 z "},"H":{"ha":1992,"x_min":34,"x_max":1904,"o":"m 287 1940 l 581 1940 q 823 1761 768 1931 l 834 1657 q 966 1669 911 1669 q 1801 1162 1482 1669 q 1904 650 1904 957 l 1904 86 q 1754 -178 1904 -117 q 1657 -196 1684 -196 l 1352 -196 q 1122 -40 1186 -196 q 1104 86 1104 32 l 1104 708 q 989 869 1104 843 l 966 869 q 834 754 870 869 l 834 150 q 770 -115 834 -62 q 587 -196 699 -196 l 281 -196 q 51 -40 116 -196 q 34 86 34 32 l 34 1657 q 161 1910 34 1843 q 287 1940 243 1940 m 103 1640 l 103 104 q 218 -115 103 -77 q 304 -127 272 -127 l 564 -127 q 742 -29 699 -127 q 765 167 765 18 l 765 736 q 932 938 765 891 l 978 938 q 1168 777 1126 938 q 1173 725 1173 755 l 1173 104 q 1289 -115 1173 -77 q 1375 -127 1343 -127 l 1634 -127 q 1818 -23 1771 -127 q 1835 104 1835 46 l 1835 633 q 1530 1375 1835 1140 q 960 1600 1293 1600 q 770 1583 802 1583 q 765 1600 765 1594 q 707 1813 758 1813 q 557 1870 672 1870 l 310 1870 q 120 1767 168 1870 q 103 1640 103 1697 m 304 1807 l 564 1807 q 701 1640 701 1807 q 765 1519 701 1519 l 770 1519 q 966 1537 798 1519 q 1611 1203 1340 1537 q 1772 633 1772 1008 l 1772 104 q 1714 -52 1772 -19 q 1640 -63 1663 -63 l 1369 -63 q 1242 23 1263 -63 q 1237 104 1237 72 l 1237 713 q 1064 990 1237 916 q 972 1002 998 1002 l 966 1002 q 707 800 774 1002 q 701 720 701 751 l 701 167 q 650 -46 701 -24 q 569 -63 606 -63 l 298 -63 q 172 23 193 -63 q 166 104 166 72 l 166 1640 q 218 1790 166 1756 q 304 1807 270 1807 m 777 1352 l 777 1347 q 828 1335 814 1335 l 920 1335 q 995 1352 995 1335 l 995 1364 q 932 1381 951 1381 l 903 1381 q 777 1352 777 1375 m 268 1463 l 268 1455 q 276 1447 269 1447 q 351 1550 339 1444 q 547 1676 363 1632 l 547 1685 q 465 1714 547 1703 l 428 1714 q 268 1463 248 1714 z "},"I":{"ha":922,"x_min":34,"x_max":834,"o":"m 321 1945 l 546 1945 q 811 1801 745 1945 q 834 1611 834 1716 l 834 1479 q 742 1197 834 1267 q 834 921 834 1144 l 834 155 q 770 -109 834 -56 q 587 -190 699 -190 l 281 -190 q 51 -35 116 -190 q 34 92 34 38 l 34 967 q 126 1203 34 1123 q 34 1433 34 1268 l 34 1657 q 321 1945 34 1945 m 103 1640 l 103 1450 q 218 1232 103 1268 q 385 1215 283 1215 l 483 1215 q 730 1289 683 1215 q 765 1496 765 1348 l 765 1594 q 696 1836 765 1794 q 529 1876 641 1876 l 339 1876 q 132 1790 182 1876 q 103 1640 103 1732 m 339 1813 l 529 1813 q 684 1744 684 1813 q 701 1594 699 1744 l 701 1496 q 644 1301 701 1301 q 483 1278 644 1280 l 385 1278 q 184 1347 184 1278 q 166 1450 170 1347 l 166 1640 q 212 1790 166 1750 q 339 1813 264 1813 m 103 949 l 103 109 q 218 -109 103 -71 q 304 -121 272 -121 l 564 -121 q 742 -23 699 -121 q 765 173 765 24 l 765 903 q 696 1145 765 1103 q 529 1185 641 1185 l 339 1185 q 132 1099 182 1185 q 103 949 103 1042 m 339 1122 l 529 1122 q 684 1053 684 1122 q 701 903 699 1053 l 701 173 q 650 -40 701 -18 q 569 -58 606 -58 l 298 -58 q 172 28 193 -58 q 166 109 166 77 l 166 949 q 212 1099 166 1059 q 339 1122 264 1122 m 268 1463 l 268 1455 q 276 1447 269 1447 q 351 1550 339 1444 q 547 1676 363 1632 l 547 1685 q 465 1714 547 1703 l 428 1714 q 268 1463 248 1714 m 268 773 l 268 765 q 276 756 269 756 q 351 859 339 754 q 547 986 363 941 l 547 994 q 465 1023 547 1013 l 428 1023 q 268 773 248 1023 z "},"J":{"ha":1976,"x_min":34,"x_max":1887,"o":"m 1375 1945 l 1605 1945 q 1870 1796 1809 1945 q 1887 1697 1887 1725 l 1887 1393 q 1801 1208 1887 1270 l 1801 1203 q 1887 1013 1887 1123 l 1887 736 q 1375 -92 1887 220 q 943 -190 1168 -190 q 304 81 591 -190 q 34 650 34 367 q 109 811 34 729 q 270 869 182 869 l 581 869 q 851 656 755 869 q 949 610 902 610 l 972 610 q 1093 777 1093 629 l 1093 996 q 1179 1203 1093 1122 q 1093 1398 1093 1284 l 1093 1692 q 1249 1928 1100 1869 q 1375 1945 1320 1945 m 1162 1669 l 1162 1421 q 1272 1232 1162 1282 q 1438 1215 1337 1215 l 1541 1215 q 1766 1266 1719 1215 q 1818 1416 1818 1322 l 1818 1674 q 1714 1859 1818 1811 q 1588 1876 1645 1876 l 1392 1876 q 1191 1796 1240 1876 q 1162 1669 1162 1737 m 1392 1813 l 1588 1813 q 1743 1755 1710 1813 q 1754 1681 1754 1704 l 1754 1410 q 1594 1278 1754 1278 l 1438 1278 q 1237 1358 1237 1278 q 1225 1416 1226 1358 l 1225 1674 q 1305 1801 1236 1801 q 1392 1813 1305 1811 m 1162 979 l 1162 806 q 1041 558 1162 593 q 983 541 1012 541 l 932 541 q 742 708 815 541 q 557 800 677 800 l 293 800 q 103 633 103 787 q 258 241 103 477 q 955 -121 550 -121 q 1737 374 1438 -121 q 1818 754 1818 568 l 1818 990 q 1708 1174 1818 1122 q 1622 1185 1655 1185 l 1358 1185 q 1162 979 1162 1185 m 1340 1122 l 1628 1122 q 1754 996 1754 1122 l 1754 754 q 1427 104 1754 363 q 949 -58 1209 -58 q 281 322 552 -58 q 166 639 179 483 q 281 736 166 726 l 575 736 q 719 610 670 736 q 937 477 808 477 l 966 477 q 1219 690 1157 477 q 1225 811 1225 766 l 1225 979 q 1340 1122 1225 1122 m 897 311 q 1029 282 934 282 q 1329 443 1213 282 q 1352 512 1352 483 l 1352 530 q 1340 541 1352 541 q 1150 449 1312 541 q 897 311 898 320 m 1311 1482 l 1311 1474 q 1319 1465 1312 1465 q 1394 1568 1382 1463 q 1590 1695 1407 1650 l 1590 1703 q 1508 1732 1590 1721 l 1471 1732 q 1311 1482 1291 1732 z "},"K":{"ha":2062,"x_min":34,"x_max":1973,"o":"m 316 1945 l 546 1945 q 811 1796 750 1945 q 828 1697 828 1725 l 828 1491 q 1133 1674 993 1674 l 1617 1674 q 1818 1554 1761 1674 q 1830 1485 1830 1514 l 1830 1473 q 1663 1220 1830 1356 l 1265 817 q 1916 155 1265 807 q 1973 5 1973 86 l 1973 0 q 1847 -173 1973 -130 q 1754 -190 1786 -190 l 1283 -190 q 937 28 1121 -190 l 828 132 l 828 52 q 656 -178 815 -134 q 587 -190 616 -190 l 275 -190 q 45 -18 90 -177 q 34 52 34 22 l 34 1697 q 189 1928 34 1864 q 316 1945 262 1945 m 103 1674 l 103 75 q 212 -109 103 -58 q 298 -121 267 -121 l 564 -121 q 747 -12 696 -121 q 759 75 759 43 l 759 241 l 765 299 q 1185 -98 1161 -98 q 1305 -121 1256 -121 l 1731 -121 q 1904 5 1904 -121 q 1737 230 1904 90 q 1179 811 1179 785 l 1179 817 q 1657 1312 1179 850 q 1761 1485 1761 1404 q 1605 1606 1761 1594 l 1168 1606 q 897 1450 1015 1606 l 765 1329 l 759 1387 l 759 1674 q 656 1859 759 1811 q 529 1876 587 1876 l 333 1876 q 115 1761 153 1876 q 103 1674 103 1707 m 333 1813 l 529 1813 q 684 1755 651 1813 q 696 1681 696 1704 l 696 1438 q 742 1249 696 1249 l 753 1249 q 1029 1496 783 1249 q 1168 1542 1083 1542 l 1599 1542 q 1697 1485 1697 1542 l 1697 1473 q 1398 1145 1697 1425 q 1116 829 1116 869 l 1116 806 q 1386 500 1116 753 q 1824 52 1824 61 q 1841 5 1841 23 l 1841 0 q 1737 -58 1841 -58 l 1300 -58 q 1018 138 1181 -58 q 753 380 779 380 l 742 380 q 696 190 696 380 l 696 69 q 569 -58 696 -58 l 293 -58 q 166 69 166 -58 l 166 1681 q 252 1807 166 1786 q 333 1813 302 1813 m 746 1105 q 805 1070 746 1076 q 1110 1278 937 1070 q 1249 1393 1234 1358 q 1168 1416 1220 1416 q 1001 1312 1098 1416 q 896 1227 972 1278 q 746 1122 775 1167 l 746 1105 m 268 1472 l 268 1464 q 276 1455 269 1455 q 351 1558 339 1453 q 547 1685 363 1640 l 547 1693 q 465 1723 547 1712 l 428 1723 q 268 1472 248 1723 z "},"L":{"ha":1722,"x_min":34,"x_max":1634,"o":"m 281 1674 l 587 1674 q 817 1519 752 1674 q 834 1393 834 1447 l 834 771 q 995 610 834 610 q 1110 604 1010 604 l 1392 604 q 1622 431 1578 591 q 1634 363 1634 392 l 1634 52 q 1461 -178 1621 -134 q 1392 -190 1421 -190 l 989 -190 q 120 351 423 -190 q 34 817 34 555 l 34 1393 q 184 1657 34 1596 q 281 1674 254 1674 m 103 1375 l 103 834 q 385 121 103 361 q 1006 -121 625 -121 l 1369 -121 q 1553 -12 1501 -121 q 1565 75 1565 43 l 1565 340 q 1455 524 1565 472 q 1369 535 1401 535 l 1081 535 q 805 621 836 535 q 765 754 765 672 l 765 1375 q 650 1594 765 1556 q 564 1606 595 1606 l 304 1606 q 120 1502 168 1606 q 103 1375 103 1433 m 298 1542 l 569 1542 q 696 1456 675 1542 q 701 1375 701 1407 l 701 766 q 857 500 701 568 q 1093 472 897 472 l 1375 472 q 1501 345 1501 472 l 1501 69 q 1375 -58 1501 -58 l 1006 -58 q 235 431 484 -58 q 166 834 166 581 l 166 1375 q 224 1531 166 1498 q 298 1542 275 1542 m 1018 305 q 1139 282 1018 282 l 1214 282 q 1225 294 1225 282 l 1225 305 q 1208 322 1225 313 l 1173 322 q 1018 305 1086 322 m 268 1196 l 268 1188 q 276 1179 269 1179 q 351 1282 339 1177 q 547 1409 363 1364 l 547 1417 q 465 1447 547 1436 l 428 1447 q 268 1196 248 1447 z "},"M":{"ha":3066,"x_min":34,"x_max":2978,"o":"m 422 1036 l 422 1024 q 433 1013 424 1013 q 595 1174 439 1013 q 1003 1352 734 1291 l 1003 1364 q 888 1404 1003 1390 l 836 1404 q 451 1145 612 1404 q 422 1036 422 1082 m 1447 1220 l 1447 1208 q 1533 1180 1460 1180 l 1584 1180 q 1849 1283 1659 1180 q 2074 1352 1940 1318 l 2074 1364 q 1959 1404 2074 1391 l 1907 1404 q 1447 1220 1782 1404 m 975 1542 q 1458 1375 1213 1542 q 1516 1364 1485 1364 q 1734 1479 1571 1385 q 2045 1542 1894 1542 q 2747 1116 2466 1542 q 2845 570 2845 958 l 2845 173 q 2793 -40 2845 -18 q 2713 -58 2749 -58 l 2442 -58 q 2315 28 2336 -58 q 2310 109 2310 77 l 2310 713 q 2102 1002 2310 950 q 2051 1007 2081 1007 l 2022 1007 q 1786 823 1856 1007 q 1769 604 1769 770 l 1769 69 q 1642 -58 1769 -58 l 1354 -58 q 1239 86 1239 -58 l 1239 685 q 1084 990 1239 919 q 980 1007 1019 1007 l 951 1007 q 704 783 764 1007 q 699 616 699 680 l 699 69 q 572 -58 699 -58 l 284 -58 q 169 86 169 -58 l 169 702 q 692 1491 169 1250 q 975 1542 834 1542 m 171 1224 q 497 1548 279 1396 q 968 1674 728 1674 q 1493 1514 1249 1674 q 1510 1508 1503 1508 q 2039 1674 1756 1674 q 2841 1213 2540 1674 q 2978 679 2978 1007 l 2978 92 q 2841 -168 2978 -103 l 2841 -165 q 2730 -190 2791 -190 l 2424 -190 q 2195 -35 2259 -190 q 2178 92 2178 38 l 2178 708 q 2097 863 2178 829 q 2051 875 2076 875 l 2022 875 q 1907 766 1950 875 q 1901 587 1901 659 l 1901 52 q 1729 -178 1888 -134 q 1659 -190 1689 -190 l 1349 -190 q 1118 -18 1168 -180 q 1107 69 1107 37 l 1107 679 q 980 875 1107 875 l 951 875 q 854 800 854 846 q 831 598 831 800 l 831 52 q 658 -178 818 -134 q 589 -190 618 -190 l 278 -190 q 171 -167 218 -190 l 171 -168 q 34 92 34 -103 l 34 679 q 171 1224 34 1007 m 2846 1051 q 2695 1295 2795 1170 q 2033 1606 2417 1606 q 1533 1438 1783 1606 q 1498 1428 1514 1428 q 968 1606 1233 1606 l 963 1606 q 250 1208 543 1606 q 171 1065 203 1141 l 171 1063 q 107 767 119 932 q 105 702 105 735 l 105 86 q 106 60 105 73 q 116 1 109 31 q 139 -50 124 -28 q 171 -83 153 -68 l 171 -84 q 301 -121 218 -121 l 566 -121 q 750 -12 699 -121 q 762 75 762 43 l 762 616 q 825 886 762 856 q 957 944 880 944 l 998 944 q 1170 789 1115 944 q 1176 696 1176 730 l 1176 86 q 1371 -121 1176 -121 l 1636 -121 q 1820 -12 1769 -121 q 1832 75 1832 43 l 1832 610 q 1901 898 1832 853 q 2028 944 1969 944 l 2068 944 q 2246 725 2246 911 l 2246 109 q 2361 -109 2246 -71 q 2448 -121 2416 -121 l 2707 -121 q 2891 -18 2840 -121 q 2909 109 2909 35 l 2909 662 q 2902 814 2909 743 q 2846 1051 2888 951 z "},"N":{"ha":1992,"x_min":34,"x_max":1904,"o":"m 281 1674 l 604 1674 q 747 1651 639 1674 q 978 1674 883 1674 q 1697 1318 1399 1674 q 1904 679 1904 1082 l 1904 92 q 1754 -173 1904 -112 q 1657 -190 1684 -190 l 1352 -190 q 1122 -29 1186 -190 q 1104 155 1104 41 l 1104 725 q 995 875 1104 843 l 960 875 q 840 771 873 875 q 834 713 834 741 l 834 92 q 684 -173 834 -112 q 587 -190 613 -190 l 281 -190 q 51 -29 116 -190 q 34 155 34 41 l 34 1329 q 97 1594 34 1541 q 281 1674 170 1674 m 103 1312 l 103 173 q 155 -69 103 -26 q 304 -121 211 -121 l 564 -121 q 747 -18 701 -121 q 765 109 765 52 l 765 731 q 932 944 765 901 l 995 944 q 1162 811 1103 944 q 1173 743 1173 772 l 1173 173 q 1225 -69 1173 -26 q 1375 -121 1281 -121 l 1634 -121 q 1818 -18 1771 -121 q 1835 109 1835 52 l 1835 662 q 1571 1347 1835 1114 q 966 1606 1318 1606 q 742 1583 936 1606 q 587 1606 610 1606 l 304 1606 q 126 1508 170 1606 q 103 1312 103 1461 m 298 1542 l 587 1542 l 753 1519 q 972 1542 922 1542 q 1640 1168 1373 1542 q 1772 662 1772 990 l 1772 109 q 1714 -46 1772 -13 q 1640 -58 1663 -58 l 1369 -58 q 1242 81 1242 -58 q 1237 173 1237 81 l 1237 725 q 1041 1002 1237 939 q 989 1007 1010 1007 l 960 1007 q 713 817 779 1007 q 701 720 701 771 l 701 109 q 644 -46 701 -13 q 569 -58 592 -58 l 298 -58 q 172 81 172 -58 q 166 173 166 81 l 166 1312 q 218 1525 166 1502 q 298 1542 262 1542 m 747 1352 q 908 1318 843 1318 q 1093 1352 1014 1318 l 1093 1369 q 971 1421 1082 1413 q 747 1352 747 1381 m 268 1215 l 268 1207 q 276 1198 269 1198 q 351 1301 339 1196 q 547 1428 363 1383 l 547 1436 q 465 1466 547 1455 l 428 1466 q 268 1215 248 1466 z "},"O":{"ha":2399,"x_min":34,"x_max":2353,"o":"m 960 1674 l 1432 1674 q 2233 1208 1912 1674 q 2353 754 2353 982 l 2353 731 q 1824 -104 2353 214 q 1421 -190 1609 -190 l 966 -190 q 120 340 430 -190 q 34 713 34 543 l 34 771 q 414 1491 34 1185 q 960 1674 656 1674 m 103 754 l 103 731 q 569 -23 103 269 q 983 -121 763 -121 l 1404 -121 q 2209 391 1926 -121 q 2284 748 2284 568 q 1847 1491 2284 1198 q 1415 1606 1645 1606 l 978 1606 q 195 1128 477 1606 q 103 754 103 946 m 978 1542 l 1415 1542 q 1967 1318 1729 1542 q 2221 736 2221 1074 q 1870 86 2221 354 q 1404 -58 1667 -58 l 983 -58 q 241 408 497 -58 q 166 731 166 562 l 166 754 q 552 1421 166 1157 q 978 1542 739 1542 m 414 1030 q 425 1013 420 1013 q 581 1168 436 1013 q 1208 1352 787 1352 l 1352 1352 q 1415 1370 1415 1352 q 1277 1393 1369 1393 l 1242 1393 q 868 1410 1099 1393 q 425 1099 573 1410 q 414 1030 414 1048 m 696 743 q 886 489 696 553 q 1087 472 920 472 l 1300 472 q 1617 553 1556 472 q 1686 720 1686 635 l 1686 766 q 1490 1002 1686 935 q 1358 1013 1428 1013 l 1036 1013 q 713 846 776 1013 q 696 743 696 768 m 1029 949 l 1358 949 q 1611 823 1572 949 q 1622 771 1622 785 l 1622 713 q 1541 576 1622 638 q 1312 535 1499 535 l 1076 535 q 793 633 817 535 q 759 748 759 676 q 955 944 788 944 q 1029 949 955 949 m 828 743 q 891 633 854 633 q 1104 604 891 604 l 1283 604 q 1530 667 1530 604 q 1553 731 1553 690 l 1553 754 q 1404 880 1553 861 l 1047 880 q 851 806 851 880 q 828 743 838 804 m 1155 300 q 1477 276 1155 276 l 1510 276 q 1813 447 1736 276 q 1818 471 1818 455 l 1818 485 q 1809 494 1818 494 l 1804 494 q 1519 352 1796 494 q 1187 309 1392 309 q 1155 300 1187 303 z "},"P":{"ha":2263,"x_min":34,"x_max":2175,"o":"m 281 1674 l 1254 1674 q 2008 1272 1700 1674 q 2175 766 2175 1034 l 2175 720 q 1754 -35 2175 279 q 1242 -190 1525 -190 l 834 -190 q 690 -437 834 -364 q 546 -460 612 -460 l 321 -460 q 34 -173 34 -460 l 34 1393 q 184 1657 34 1596 q 281 1674 254 1674 m 103 1375 l 103 -155 q 189 -363 103 -313 q 339 -391 247 -391 l 529 -391 q 747 -276 711 -391 q 777 -132 768 -132 q 868 -121 801 -121 l 1225 -121 q 2020 368 1735 -121 q 2106 736 2106 551 l 2106 748 q 1668 1491 2106 1200 q 1237 1606 1466 1606 l 304 1606 q 120 1502 168 1606 q 103 1375 103 1433 m 298 1542 l 1237 1542 q 1950 1111 1686 1542 q 2043 748 2043 937 l 2043 736 q 1640 52 2043 323 q 1225 -58 1455 -58 l 886 -58 q 701 -138 701 -58 q 633 -311 701 -311 q 529 -328 633 -324 l 339 -328 q 189 -282 229 -328 q 166 -155 166 -230 l 166 1375 q 224 1531 166 1498 q 298 1542 275 1542 m 351 1409 q 385 1368 360 1382 q 621 1379 532 1379 l 1173 1379 q 1237 1397 1237 1379 q 1099 1420 1190 1420 l 552 1420 q 374 1437 486 1420 q 351 1409 351 1432 m 701 915 l 701 587 q 811 477 701 477 q 886 472 811 472 l 1122 472 q 1438 558 1393 472 q 1513 743 1513 635 q 1300 1007 1513 938 q 1173 1013 1214 1013 l 834 1013 q 701 915 701 1013 m 817 949 l 1179 949 q 1432 823 1394 949 q 1450 743 1442 802 q 1272 541 1450 581 q 1122 535 1206 535 l 868 535 q 765 570 765 535 l 765 909 q 817 949 765 949 m 834 880 l 834 604 l 1104 604 q 1323 639 1323 604 q 1375 720 1354 639 l 1375 766 q 1208 880 1352 880 l 834 880 m 949 277 l 949 267 q 1246 251 1018 251 l 1299 251 q 1647 436 1561 251 l 1653 468 l 1653 484 q 1642 494 1653 494 l 1636 494 q 1426 389 1624 494 q 1024 293 1284 293 q 949 277 1024 290 z "},"Q":{"ha":1998,"x_min":34,"x_max":1910,"o":"m 978 1674 q 1196 1651 1025 1674 q 1363 1674 1314 1674 l 1645 1674 q 1893 1514 1828 1674 q 1910 1387 1910 1441 l 1910 -178 q 1761 -449 1910 -380 q 1663 -466 1689 -466 l 1352 -466 q 1116 -288 1173 -466 q 1104 -201 1104 -234 l 1104 -190 l 1036 -196 l 920 -196 q 293 98 588 -196 q 34 736 34 375 q 587 1594 34 1286 q 978 1674 789 1674 m 103 731 q 437 63 103 350 q 937 -127 675 -127 l 989 -127 q 1168 -121 1074 -121 q 1173 -144 1173 -131 l 1173 -184 q 1375 -397 1173 -397 l 1640 -397 q 1824 -288 1773 -397 q 1841 -161 1841 -219 l 1841 1370 q 1628 1606 1841 1606 l 1381 1606 q 1196 1583 1349 1606 l 972 1606 q 287 1260 573 1606 q 103 731 103 1025 m 978 1542 l 1196 1519 q 1381 1542 1349 1542 l 1628 1542 q 1766 1456 1766 1535 q 1777 1370 1777 1456 l 1777 -161 q 1726 -317 1777 -281 q 1645 -334 1681 -334 l 1369 -334 q 1237 -178 1237 -334 q 1173 -52 1237 -52 q 989 -63 1004 -63 l 937 -63 q 316 282 589 -63 q 166 736 166 495 q 615 1456 166 1185 q 978 1542 798 1542 m 448 1076 l 454 1065 q 615 1203 467 1065 q 943 1358 744 1289 l 943 1364 q 868 1387 943 1383 l 828 1387 q 465 1145 620 1387 q 448 1076 448 1093 m 707 731 q 903 484 707 548 q 949 477 925 477 l 989 477 q 1225 667 1155 477 q 1231 731 1231 707 l 1231 743 q 1006 996 1231 951 q 972 1002 1002 996 q 713 800 781 1002 q 707 731 707 740 m 972 938 q 1168 748 1168 910 l 1168 713 q 1059 558 1168 617 q 983 541 1030 541 l 943 541 q 770 743 770 575 q 909 926 770 876 q 972 938 921 932 m 840 736 q 960 610 863 610 l 989 610 q 1099 713 1061 610 l 1099 743 q 983 863 1078 863 l 949 863 q 846 766 879 863 l 840 736 m 983 311 q 1059 294 1008 300 q 1335 454 1241 294 l 1340 489 l 1340 500 q 1323 512 1340 512 q 978 322 1098 412 q 983 311 978 311 z "},"R":{"ha":2268,"x_min":34,"x_max":2180,"o":"m 298 1674 l 1231 1674 q 2089 1139 1782 1674 q 2180 667 2180 942 l 2180 627 q 2031 357 2180 425 q 1933 340 1960 340 l 1830 340 q 2013 144 1830 330 q 2066 5 2066 85 l 2066 -12 q 1933 -184 2066 -137 q 1801 -201 1875 -201 l 1421 -201 q 1070 -23 1200 -201 l 840 201 l 840 46 q 684 -184 840 -110 q 552 -201 602 -201 l 321 -201 q 34 86 34 -201 l 34 1387 q 178 1651 34 1586 q 298 1674 245 1674 m 103 1370 l 103 104 q 189 -104 103 -54 q 339 -132 247 -132 l 534 -132 q 736 -52 693 -132 q 770 69 760 -52 l 770 322 l 777 363 q 1231 -81 786 362 q 1438 -132 1299 -132 l 1784 -132 q 1997 0 1997 -132 q 1830 224 1997 86 q 1663 403 1808 255 l 1691 408 l 1910 408 q 2094 518 2044 408 q 2112 644 2112 587 l 2112 650 q 1703 1461 2112 1202 q 1214 1606 1504 1606 l 316 1606 q 103 1370 103 1606 m 316 1542 l 1214 1542 q 1979 1053 1721 1542 q 2048 650 2048 898 l 2048 644 q 1997 489 2048 525 q 1916 472 1952 472 l 1749 472 q 1582 426 1582 472 l 1582 420 q 1749 224 1582 389 q 1933 5 1933 47 l 1933 -23 q 1784 -69 1917 -69 l 1438 -69 q 1191 46 1267 -69 q 782 431 808 431 l 759 437 q 707 276 707 437 l 707 63 q 546 -69 707 -69 l 339 -69 q 189 -23 229 -69 q 166 104 166 29 l 166 1370 q 212 1519 166 1480 q 316 1542 259 1542 m 777 979 l 777 961 q 846 938 777 938 l 1202 938 q 1305 961 1305 938 q 1208 990 1305 984 l 828 990 q 777 979 814 990 m 1021 730 q 1272 711 1021 717 q 1393 755 1393 719 q 1397 764 1397 755 l 1397 780 q 1263 812 1397 812 q 1071 771 1071 804 q 1021 730 1021 744 m 268 1215 l 268 1207 q 276 1198 269 1198 q 351 1301 339 1196 q 547 1428 363 1383 l 547 1436 q 465 1466 547 1455 l 428 1466 q 268 1215 248 1466 z "},"S":{"ha":2268,"x_min":34,"x_max":2180,"o":"m 1001 1674 l 1916 1674 q 2163 1514 2098 1674 q 2180 1387 2180 1441 l 2180 1157 q 2129 967 2180 1032 l 2129 961 q 2180 777 2180 894 q 1599 -132 2180 163 q 1173 -201 1404 -201 l 321 -201 q 57 -58 127 -201 q 34 161 34 23 l 34 241 q 85 507 34 458 l 85 512 q 39 656 39 580 l 39 777 q 184 1237 39 998 q 1001 1674 488 1674 m 109 760 l 109 679 q 189 507 109 574 q 103 288 103 458 l 103 178 q 155 -75 103 -37 q 339 -132 206 -132 l 1156 -132 q 1899 184 1646 -132 q 2112 777 2112 424 q 2025 967 2112 895 q 2112 1174 2112 1017 l 2112 1370 q 1899 1606 2112 1606 l 1018 1606 q 172 1065 441 1606 q 109 760 109 892 m 1018 1542 l 1899 1542 q 2037 1456 2037 1535 q 2048 1370 2048 1456 l 2048 1174 q 2002 1024 2048 1064 q 1876 990 1950 990 l 1064 990 q 926 972 967 990 l 926 956 q 995 944 966 944 l 1553 944 q 1921 938 1683 944 q 2037 857 1981 938 q 2048 771 2048 794 q 1518 -18 2048 234 q 1156 -69 1373 -69 l 339 -69 q 184 -12 218 -69 q 166 178 166 52 l 166 224 q 207 437 166 437 q 333 484 236 484 l 1185 484 q 1305 518 1305 484 q 1231 535 1278 535 l 356 535 q 172 662 172 535 l 172 760 q 511 1387 172 1116 q 1018 1542 714 1542 m 454 1093 l 454 1065 l 460 1065 q 598 1180 470 1065 q 886 1329 755 1302 q 989 1375 989 1363 q 868 1393 921 1393 q 471 1145 618 1393 q 454 1093 454 1107 m 1156 778 l 1156 774 q 1402 743 1156 755 q 1558 724 1473 724 l 1672 724 q 1761 755 1761 724 l 1761 760 q 1686 846 1752 846 q 1525 850 1587 850 l 1318 850 q 1156 778 1201 850 m 345 314 q 385 267 345 289 q 529 272 480 272 l 1150 272 q 1202 267 1171 272 q 1386 351 1386 267 l 1386 359 q 1346 389 1386 389 l 604 389 q 397 393 525 389 q 345 314 345 393 z "},"T":{"ha":1987,"x_min":34,"x_max":1899,"o":"m 397 1945 l 488 1945 q 793 1842 741 1945 q 840 1692 818 1842 l 840 1669 l 1202 1669 q 1513 1571 1466 1669 q 1565 1404 1565 1506 l 1565 1134 q 1404 886 1565 951 q 1277 869 1331 869 l 840 869 l 840 863 q 903 633 840 633 q 1036 604 903 610 l 1634 604 q 1881 449 1813 604 q 1899 340 1899 376 l 1899 63 q 1743 -184 1899 -116 q 1634 -201 1670 -201 l 1018 -201 q 281 115 560 -201 q 57 564 83 343 q 34 932 34 626 l 34 1583 q 120 1882 34 1826 q 397 1945 175 1945 m 103 949 q 201 357 103 492 q 1036 -132 468 -132 l 1617 -132 q 1830 81 1830 -132 l 1830 322 q 1617 535 1830 535 l 1018 535 q 788 667 827 535 q 770 846 770 694 l 770 852 q 805 938 770 938 l 1260 938 q 1495 1151 1495 938 l 1495 1387 q 1381 1583 1495 1539 q 1185 1600 1316 1600 l 811 1600 q 770 1669 770 1600 q 534 1876 770 1876 l 414 1876 q 172 1824 172 1876 q 103 1606 103 1793 l 103 949 m 414 1813 l 471 1813 q 690 1750 690 1813 q 719 1583 703 1746 q 805 1537 755 1537 l 1185 1537 q 1398 1496 1398 1537 q 1432 1387 1432 1470 l 1432 1151 q 1346 1013 1424 1013 q 1260 1002 1346 1002 l 823 1002 q 707 875 707 1002 l 707 829 q 817 524 707 586 q 1018 472 884 472 l 1617 472 q 1766 322 1766 472 l 1766 81 q 1617 -69 1766 -69 l 1036 -69 q 218 472 451 -69 q 166 949 166 576 l 166 1565 q 212 1778 166 1778 q 414 1813 212 1813 m 1629 319 q 1592 369 1629 369 q 1449 366 1503 366 l 931 366 q 903 348 903 366 l 903 342 q 1031 290 903 290 q 1067 293 1053 293 l 1501 293 q 1600 290 1535 293 q 1629 319 1629 304 m 1309 1381 q 1272 1430 1309 1430 q 1128 1428 1183 1428 l 825 1428 q 797 1409 797 1428 l 797 1404 q 925 1352 797 1352 q 961 1354 947 1354 l 1181 1354 q 1280 1352 1215 1354 q 1309 1381 1309 1365 m 268 1463 l 268 1455 q 276 1447 269 1447 q 351 1550 339 1444 q 547 1676 363 1632 l 547 1685 q 465 1714 547 1703 l 428 1714 q 268 1463 248 1714 z "},"U":{"ha":1998,"x_min":34,"x_max":1910,"o":"m 281 1674 l 592 1674 q 823 1525 751 1674 q 840 1428 840 1454 l 840 857 q 880 644 840 675 q 960 610 924 610 l 995 610 q 1104 754 1104 634 l 1104 1324 q 1208 1629 1104 1575 q 1358 1674 1208 1653 l 1663 1674 q 1893 1525 1821 1674 q 1910 1428 1910 1454 l 1910 736 q 1358 -121 1910 187 q 966 -201 1145 -201 q 218 190 527 -201 q 34 817 34 415 l 34 1387 q 184 1657 34 1589 q 281 1674 254 1674 m 103 1370 l 103 834 q 368 132 103 359 q 678 -75 551 -48 q 972 -132 842 -132 q 1731 317 1428 -132 q 1841 754 1841 524 l 1841 1404 q 1640 1606 1841 1606 l 1381 1606 q 1173 1370 1173 1606 l 1173 736 q 989 541 1150 541 q 972 535 978 535 q 782 679 835 535 q 770 834 770 734 l 770 1404 q 569 1606 770 1606 l 304 1606 q 120 1496 171 1606 q 103 1370 103 1428 m 298 1542 l 575 1542 q 707 1410 707 1542 l 707 840 q 805 535 707 585 q 972 472 805 500 q 1225 662 1160 472 q 1237 743 1237 705 l 1237 1306 q 1300 1525 1237 1525 q 1375 1542 1312 1539 l 1645 1542 q 1777 1410 1777 1542 l 1777 754 q 1294 0 1777 262 q 972 -69 1112 -69 q 368 218 631 -69 q 166 834 166 430 l 166 1370 q 218 1525 166 1489 q 298 1542 262 1542 m 983 317 q 1064 294 983 298 q 1323 431 1225 294 q 1346 500 1346 466 q 1329 512 1329 507 q 983 328 1299 512 l 983 317 m 268 1215 l 268 1207 q 276 1198 269 1198 q 351 1301 339 1196 q 547 1428 363 1383 l 547 1436 q 465 1466 547 1455 l 428 1466 q 268 1215 248 1466 m 1354 1215 l 1354 1207 q 1362 1198 1355 1198 q 1437 1301 1425 1196 q 1632 1428 1449 1383 l 1632 1436 q 1551 1466 1632 1455 l 1514 1466 q 1354 1215 1334 1466 z "},"V":{"ha":1912,"x_min":34,"x_max":1824,"o":"m 281 1674 l 546 1674 q 834 1444 763 1674 q 926 1157 926 1168 l 932 1157 q 1099 1588 1034 1514 q 1312 1674 1185 1674 l 1576 1674 q 1807 1542 1746 1674 q 1824 1456 1824 1495 q 1582 673 1824 1366 q 1329 -69 1358 -16 q 1059 -201 1243 -201 l 811 -201 q 523 -52 594 -201 q 51 1352 494 -3 q 34 1461 34 1411 q 178 1657 34 1599 q 281 1674 239 1674 m 103 1450 q 356 656 103 1394 q 598 -40 557 31 q 828 -132 654 -132 l 1041 -132 q 1283 0 1226 -132 q 1749 1421 1749 1380 l 1754 1456 q 1565 1606 1754 1594 l 1329 1606 q 1093 1433 1153 1606 q 932 938 1093 1422 l 926 938 q 719 1525 759 1464 q 529 1606 652 1606 l 298 1606 q 120 1525 171 1606 q 103 1450 109 1495 m 298 1542 l 529 1542 q 690 1433 665 1542 q 880 880 701 1419 q 920 834 910 834 l 937 834 q 1081 1192 974 834 q 1231 1519 1181 1519 q 1329 1542 1260 1542 l 1559 1542 q 1691 1456 1691 1542 q 1289 224 1691 1400 q 1168 -40 1216 -40 q 1041 -69 1168 -62 l 828 -69 q 661 -18 694 -69 q 431 639 615 48 q 166 1456 166 1400 q 298 1542 166 1542 m 891 702 q 955 673 891 682 l 978 673 q 1139 806 1139 692 l 1139 817 q 1104 840 1133 840 l 1064 840 q 903 731 975 840 q 891 702 893 731 z "},"W":{"ha":2976,"x_min":34,"x_max":2888,"o":"m 275 1674 l 541 1674 q 817 1479 743 1674 q 920 1162 920 1180 q 1029 1479 933 1162 q 1312 1674 1115 1674 l 1611 1674 q 1893 1468 1818 1673 q 1990 1168 1990 1184 l 2002 1168 q 2186 1600 2129 1600 q 2382 1674 2252 1674 l 2647 1674 q 2877 1542 2809 1674 q 2888 1468 2888 1491 l 2888 1433 q 2532 317 2888 1360 q 2347 -121 2399 -121 q 2123 -201 2285 -201 l 1870 -201 q 1605 -75 1678 -201 q 1461 305 1579 -48 q 1455 311 1461 311 q 1265 -138 1341 -93 q 1053 -201 1183 -201 l 800 -201 q 500 -18 579 -201 q 34 1416 34 1371 l 34 1468 q 178 1657 34 1608 q 275 1674 224 1674 m 103 1438 q 408 489 103 1381 q 604 -52 559 7 q 817 -132 663 -132 l 1036 -132 q 1272 -18 1210 -132 q 1455 530 1289 20 l 1467 530 q 1668 -46 1617 45 q 1887 -132 1732 -132 l 2106 -132 q 2342 -12 2289 -132 q 2814 1398 2376 49 q 2819 1456 2819 1429 q 2629 1606 2819 1606 l 2399 1606 q 2169 1456 2234 1606 l 2002 944 l 1990 944 q 1789 1519 1841 1428 q 1594 1606 1720 1606 l 1329 1606 q 1093 1444 1158 1606 l 932 944 l 920 944 q 719 1519 753 1467 q 523 1606 650 1606 l 293 1606 q 103 1438 103 1606 m 293 1542 l 523 1542 q 690 1438 650 1542 q 903 840 854 920 l 932 834 q 1070 1174 972 834 q 1231 1525 1180 1525 q 1329 1542 1284 1542 l 1594 1542 q 1754 1450 1715 1542 q 1962 857 1933 922 l 1990 834 l 2002 834 q 2140 1174 2043 834 q 2302 1525 2252 1525 q 2399 1542 2355 1542 l 2629 1542 q 2756 1468 2756 1542 l 2756 1450 q 2515 690 2756 1394 q 2279 0 2319 88 q 2106 -69 2242 -69 l 1887 -69 q 1731 -23 1771 -69 q 1559 437 1691 35 q 1455 639 1510 639 q 1277 184 1411 639 q 1116 -63 1205 -63 q 1036 -69 1067 -69 l 817 -69 q 627 35 659 -69 q 166 1433 166 1400 l 166 1468 q 293 1542 166 1542 m 886 713 l 886 708 q 955 673 906 673 l 960 673 q 1127 766 1084 673 l 1133 800 l 1133 823 q 1116 840 1133 831 l 1059 840 q 886 713 967 840 m 1956 713 l 1956 708 q 2037 673 1956 681 q 2203 800 2203 692 l 2203 823 q 2186 840 2203 831 l 2112 840 q 1956 713 2044 840 z "},"X":{"ha":2004,"x_min":34,"x_max":1916,"o":"m 298 1674 l 414 1674 q 972 1508 732 1674 l 978 1508 q 1536 1674 1219 1674 l 1651 1674 q 1893 1525 1827 1674 q 1916 1312 1916 1456 l 1916 1232 q 1807 915 1916 958 q 1628 869 1750 869 l 1541 869 q 1381 754 1407 869 l 1381 736 q 1525 604 1381 625 q 1807 564 1771 604 q 1916 264 1916 503 l 1916 161 q 1807 -155 1916 -112 q 1628 -201 1750 -201 l 1576 -201 q 972 -29 1208 -201 q 374 -201 751 -201 l 321 -201 q 57 -58 127 -201 q 34 161 34 23 l 34 241 q 132 553 34 505 q 471 610 174 610 q 569 736 569 648 q 408 869 569 869 l 321 869 q 57 1013 127 869 q 34 1232 34 1094 l 34 1312 q 132 1623 34 1575 q 298 1674 197 1674 m 103 1295 l 103 1249 q 155 996 103 1033 q 339 938 206 938 l 425 938 q 638 771 597 938 l 638 731 q 448 541 614 541 q 149 472 186 541 q 103 224 103 438 l 103 178 q 155 -75 103 -37 q 339 -132 206 -132 l 356 -132 q 949 40 731 -132 l 978 46 q 1150 -52 989 46 q 1594 -132 1331 -132 l 1611 -132 q 1841 69 1841 -132 q 1847 178 1847 90 l 1847 224 q 1795 472 1847 472 q 1617 535 1758 535 q 1358 610 1381 535 q 1312 736 1312 663 q 1485 938 1312 894 l 1611 938 q 1841 1139 1841 938 q 1847 1249 1847 1160 l 1847 1295 q 1795 1542 1847 1542 q 1634 1606 1753 1606 l 1553 1606 q 995 1433 1231 1606 q 972 1428 975 1428 q 656 1577 749 1560 q 397 1606 522 1606 l 316 1606 q 120 1491 163 1606 q 103 1295 103 1426 m 316 1542 l 397 1542 q 909 1387 695 1542 q 983 1364 942 1364 q 1191 1473 1006 1364 q 1553 1542 1349 1542 l 1634 1542 q 1772 1461 1753 1542 q 1784 1295 1784 1406 l 1784 1249 q 1749 1036 1784 1069 q 1455 996 1718 996 q 1300 898 1345 965 q 1249 731 1249 831 q 1438 484 1249 553 q 1703 466 1495 474 q 1784 305 1784 437 l 1784 178 q 1749 -35 1784 -1 q 1611 -69 1707 -69 l 1594 -69 q 1036 92 1245 -69 q 978 109 1006 109 l 972 109 q 759 0 937 109 q 356 -69 604 -69 l 339 -69 q 184 -12 218 -69 q 166 178 166 52 l 166 224 q 207 437 166 437 q 494 477 207 477 q 673 604 610 508 q 701 736 701 681 q 517 990 701 922 q 252 1007 472 1002 q 172 1128 172 1037 q 166 1249 166 1167 l 166 1295 q 207 1508 166 1508 q 316 1542 233 1542 m 966 1208 q 1036 1192 986 1192 l 1047 1192 q 1369 1318 1133 1192 q 1495 1370 1495 1350 q 1409 1393 1495 1389 q 972 1232 1251 1393 q 966 1208 972 1229 m 374 317 l 374 305 q 402 282 376 293 q 793 437 711 282 q 811 484 811 466 l 811 495 q 793 512 811 503 q 471 351 780 512 q 374 317 374 336 m 268 1215 l 268 1207 q 276 1198 269 1198 q 351 1301 339 1196 q 547 1428 363 1383 l 547 1436 q 465 1466 547 1455 l 428 1466 q 268 1215 248 1466 z "},"Y":{"ha":2268,"x_min":34,"x_max":2180,"o":"m 298 1681 l 581 1681 q 823 1531 757 1681 q 857 1352 840 1459 q 1006 1278 897 1278 l 1375 1278 l 1375 1393 q 1518 1657 1375 1591 q 1640 1681 1586 1681 l 1916 1681 q 2163 1525 2095 1681 q 2180 1416 2180 1452 l 2180 771 q 1599 -127 2180 169 q 1196 -196 1401 -196 l 298 -196 q 57 -46 123 -196 q 34 167 34 23 l 34 248 q 132 558 34 511 q 298 610 197 610 l 488 610 l 488 616 q 207 880 370 673 q 39 1393 39 1121 l 39 1438 q 195 1663 39 1596 q 298 1681 256 1681 m 109 1416 l 109 1410 q 604 627 109 918 q 929 541 775 553 l 316 541 q 120 426 163 541 q 103 230 103 361 l 103 184 q 155 -63 103 -63 q 316 -127 197 -127 l 1179 -127 q 1899 190 1642 -127 q 2112 789 2112 417 l 2112 1398 q 1899 1611 2112 1611 l 1657 1611 q 1444 1375 1444 1611 l 1444 1249 q 1404 1208 1444 1208 l 989 1208 q 777 1381 814 1208 q 564 1611 777 1611 l 316 1611 q 109 1416 109 1611 m 316 1548 l 564 1548 q 713 1393 713 1548 q 903 1157 713 1226 q 1001 1145 949 1145 l 1392 1145 q 1507 1260 1507 1145 l 1507 1375 q 1553 1525 1507 1485 q 1657 1548 1600 1548 l 1899 1548 q 2048 1398 2048 1548 l 2048 789 q 1507 -18 2048 227 q 1179 -63 1357 -63 l 316 -63 q 178 17 197 -63 q 166 184 166 73 l 166 230 q 207 443 166 443 q 316 477 233 477 l 1168 477 q 1404 553 1368 477 l 1404 564 q 1265 604 1404 604 l 1001 604 q 230 1111 486 604 q 172 1410 172 1270 l 172 1433 q 316 1548 172 1548 m 1312 979 q 1386 961 1339 961 l 1455 961 q 1640 1099 1640 984 q 1622 1122 1631 1122 l 1594 1122 q 1312 984 1535 1122 l 1312 979 m 1173 311 q 1283 294 1208 294 q 1501 374 1443 294 q 1513 426 1513 395 q 1490 454 1502 452 l 1478 454 q 1283 391 1322 454 q 1173 317 1259 366 l 1173 311 z "},"Z":{"ha":1998,"x_min":34,"x_max":1910,"o":"m 298 1681 l 1645 1681 q 1887 1531 1822 1681 q 1910 1318 1910 1462 l 1910 1232 q 1818 898 1910 956 q 1386 616 1708 802 l 1386 610 l 1645 610 q 1887 460 1822 610 q 1910 248 1910 391 l 1910 167 q 1812 -144 1910 -96 q 1645 -196 1746 -196 l 298 -196 q 57 -58 126 -196 q 34 52 34 11 l 34 374 q 264 690 34 570 q 552 869 529 863 l 552 875 l 321 875 q 51 1024 120 875 q 34 1122 34 1095 l 34 1433 q 212 1669 34 1612 q 298 1681 267 1681 m 103 1410 l 103 1145 q 212 961 103 1011 q 339 944 281 944 l 793 944 l 793 938 q 189 553 258 610 q 103 357 103 481 l 103 75 q 316 -127 103 -127 l 1628 -127 q 1824 -12 1780 -127 q 1841 184 1841 53 l 1841 230 q 1789 477 1841 477 q 1628 541 1748 541 l 1145 541 q 1571 811 1228 602 q 1807 996 1765 925 q 1841 1249 1841 1044 l 1841 1301 q 1789 1548 1841 1548 q 1628 1611 1748 1611 l 316 1611 q 103 1410 103 1611 m 316 1548 l 1628 1548 q 1766 1468 1748 1548 q 1777 1301 1777 1411 l 1777 1249 q 1731 1007 1777 1007 q 1565 886 1726 977 q 1047 553 1131 615 q 1029 512 1029 532 q 1168 477 1029 477 l 1628 477 q 1766 397 1748 477 q 1777 230 1777 341 l 1777 184 q 1737 -29 1777 -29 q 1628 -63 1711 -63 l 316 -63 q 166 69 166 -63 l 166 357 q 328 570 166 494 q 897 938 776 852 q 909 972 909 957 l 909 979 q 788 1007 909 1002 l 339 1007 q 184 1059 220 1007 q 166 1139 166 1103 l 166 1416 q 316 1548 166 1548 m 368 403 q 391 374 379 376 q 707 558 435 374 q 943 794 760 558 l 943 811 l 937 811 q 569 587 908 811 q 368 403 368 481 m 268 1215 l 268 1207 q 276 1198 269 1198 q 351 1301 339 1196 q 547 1428 363 1383 l 547 1436 q 465 1466 547 1455 l 428 1466 q 268 1215 248 1466 z "},"":{"ha":1992,"x_min":34,"x_max":1904,"o":"m 1047 1663 l 1605 1663 q 1881 1519 1819 1663 q 1904 1364 1904 1442 l 1904 1162 q 1777 898 1904 958 q 1605 863 1702 863 l 1605 834 q 1571 725 1605 764 l 1571 720 q 1605 610 1605 680 l 1605 593 q 1881 449 1819 593 q 1904 294 1904 371 l 1904 92 q 1761 -184 1904 -121 q 1663 -201 1689 -201 l 943 -201 q 189 218 503 -201 q 34 731 34 452 q 587 1583 34 1274 q 1047 1663 775 1663 m 103 720 q 304 184 103 439 q 960 -132 589 -132 l 1640 -132 q 1830 28 1830 -116 q 1835 109 1835 64 l 1835 276 q 1784 466 1835 420 q 1588 524 1737 524 l 1513 524 q 1536 610 1536 562 q 1467 725 1536 663 l 1467 731 q 1536 846 1536 762 q 1495 932 1536 894 l 1507 932 q 1777 984 1745 932 q 1835 1180 1835 1031 l 1835 1347 q 1784 1537 1835 1491 q 1588 1594 1737 1594 l 1064 1594 q 397 1364 618 1594 q 103 720 103 1099 m 1064 1531 l 1588 1531 q 1766 1421 1766 1531 q 1772 1347 1772 1394 l 1772 1180 q 1714 1013 1772 1041 q 1196 990 1638 990 l 995 990 q 880 949 901 990 q 972 921 880 924 l 1340 921 q 1473 846 1473 921 l 1473 834 q 1375 766 1455 766 l 897 766 q 742 725 742 766 q 811 685 758 685 q 1214 690 1167 690 q 1461 639 1461 690 q 1473 610 1473 639 l 1473 598 q 1358 518 1458 518 l 1029 518 q 932 507 978 518 l 932 489 q 983 477 969 477 l 1242 477 q 1737 426 1737 465 q 1772 276 1772 389 l 1772 109 q 1697 -58 1772 -58 q 1657 -69 1697 -69 l 960 -69 q 287 317 557 -69 q 166 731 166 516 q 604 1438 166 1166 q 1064 1531 768 1531 m 443 1059 l 443 1047 l 460 1047 q 891 1318 735 1303 q 1013 1352 900 1327 l 1013 1364 q 863 1381 956 1381 q 465 1134 611 1381 q 443 1059 443 1088 m 1093 387 q 1013 312 1093 372 q 1006 295 1006 304 q 1133 274 1039 274 l 1254 274 q 1375 291 1375 274 q 1254 370 1282 346 l 1249 387 l 1093 387 z "},"*":{"ha":1411,"x_min":34,"x_max":1323,"o":"m 471 1893 l 500 1893 q 690 1801 592 1893 q 868 1882 770 1882 l 880 1882 q 1139 1721 1007 1882 q 1323 1444 1323 1569 l 1323 1421 q 1242 1243 1323 1331 q 1312 1076 1312 1166 l 1312 1059 q 1122 777 1312 932 q 874 621 996 621 l 851 621 q 684 690 761 621 q 500 604 606 604 q 230 771 363 604 q 57 1007 57 920 q 45 1059 47 1007 q 132 1249 45 1147 q 34 1450 34 1330 q 195 1709 34 1575 q 471 1893 347 1893 m 103 1444 q 218 1249 103 1374 l 132 1122 l 115 1059 q 264 840 115 964 q 500 673 401 673 q 678 771 564 673 l 696 771 q 868 690 786 690 q 1076 834 960 690 q 1242 1070 1242 970 q 1162 1232 1242 1139 q 1156 1243 1162 1243 q 1237 1352 1166 1270 q 1254 1438 1254 1399 q 1099 1657 1254 1529 q 868 1813 974 1813 q 701 1721 804 1813 q 684 1715 690 1715 q 569 1807 654 1729 q 477 1824 526 1824 q 235 1646 386 1824 q 103 1444 103 1537 m 471 1761 l 500 1761 q 650 1657 533 1761 q 696 1651 682 1651 q 828 1738 722 1651 q 874 1750 849 1750 q 1110 1560 943 1750 q 1191 1444 1191 1490 l 1191 1421 q 1110 1295 1191 1386 q 1093 1237 1093 1261 q 1173 1105 1114 1185 l 1179 1070 l 1179 1059 q 920 771 1179 998 q 868 754 920 758 l 857 754 q 724 829 815 754 l 690 834 l 684 834 q 534 743 644 834 q 500 736 530 743 q 281 909 431 736 q 178 1053 178 1000 q 275 1215 178 1093 q 281 1243 275 1234 q 178 1398 281 1283 q 166 1450 166 1442 q 431 1750 166 1518 l 471 1761 m 402 1525 l 402 1519 q 431 1479 402 1491 l 437 1479 q 517 1525 493 1479 q 454 1583 490 1583 q 402 1525 402 1565 m 661 1508 q 719 1479 670 1479 l 753 1479 q 846 1514 828 1479 l 846 1525 q 782 1571 846 1571 q 661 1508 716 1557 z "}}}
